<svg width="120" height="120" viewBox="0 0 120 120" fill="none" xmlns="http://www.w3.org/2000/svg">
<path d="M21.3101 71.0046H24.0776V78.9125C24.0776 80.0185 23.8562 80.7927 23.3581 81.2904C22.8599 81.7881 22.085 82.0093 20.978 82.0093H17.4356C16.3286 82.0093 15.5537 81.7881 15.0555 81.2904C14.5573 80.7927 14.3359 80.0185 14.3359 78.9125V71.0046H17.1035V78.9125C17.1035 79.5208 17.4356 79.8526 18.0444 79.8526H20.3691C20.978 79.8526 21.3101 79.5208 21.3101 78.9125V71.0046Z" fill="#CDD000"/>
<path d="M35.3705 81.8434H32.4369L28.7285 75.3733V81.8434H25.9609V71.0046H28.8945L32.603 77.4747V71.0046H35.3705V81.8434Z" fill="#CDD000"/>
<path d="M43.2832 71.0045C44.4456 71.0045 45.3312 71.281 45.94 71.8893C46.5489 72.4976 46.8256 73.3824 46.8256 74.5437V78.2488C46.8256 79.41 46.5489 80.2948 45.94 80.9031C45.3312 81.5114 44.4456 81.7879 43.2832 81.7879H37.25V70.9492H43.2832V71.0045ZM44.0581 74.599C44.0581 73.6589 43.6153 73.2165 42.6744 73.2165H40.0175V79.6865H42.6744C43.6153 79.6865 44.0581 79.2442 44.0581 78.3041V74.599Z" fill="#CDD000"/>
<path d="M56.9582 81.8434H48.3789V71.0046H56.9582V73.1613H51.1464V75.2627H55.6852V77.4194H51.1464V79.6867H56.9582V81.8434Z" fill="#CDD000"/>
<path d="M58.2305 71.0046H64.7065C65.8135 71.0046 66.5884 71.2258 67.0866 71.7235C67.5847 72.2212 67.8061 72.9954 67.8061 74.1014V75.4839C67.8061 76.3134 67.6401 76.977 67.3633 77.4747C67.0866 77.9724 66.6438 78.2489 66.0349 78.4148L67.9722 81.8434H64.9279L63.1567 78.5807H60.998V81.8434H58.2305V71.0046ZM65.0386 74.1014C65.0386 73.4931 64.7065 73.1613 64.0976 73.1613H60.998V76.424H64.0976C64.7065 76.424 65.0386 76.0922 65.0386 75.4839V74.1014Z" fill="#CDD000"/>
<path d="M79.2637 81.8434H76.4961V73.1613H73.2305V71.0046H82.5294V73.1613H79.2637V81.8434Z" fill="#CDD000"/>
<path d="M93.0463 81.8434H90.2788V77.4194H86.4042V81.8434H83.6367V71.0046H86.4042V75.2627H90.2788V71.0046H93.0463V81.8434Z" fill="#CDD000"/>
<path d="M103.45 81.8434H94.8711V71.0046H103.45V73.1613H97.6386V75.2627H102.177V77.4194H97.6386V79.6867H103.45V81.8434Z" fill="#CDD000"/>
<path d="M14.3359 83.447H23.026C24.4651 83.447 25.4614 83.7788 26.181 84.3871C26.8452 85.0507 27.1773 85.9908 27.1773 87.318C27.1773 88.2028 27.0112 88.8664 26.6238 89.4194C26.2363 89.9724 25.7935 90.3595 25.24 90.5807C26.4024 90.9125 27.2326 91.6867 27.6201 92.9032C27.7861 93.3456 27.8415 93.8986 27.8415 94.4516C27.8415 95.8894 27.5094 96.9401 26.8452 97.6037C26.181 98.2673 25.1293 98.5991 23.6902 98.5991H14.3359V83.447ZM23.2474 87.7604C23.2474 86.8756 22.8046 86.4332 21.919 86.4332H18.2658V89.4747H21.9743C22.8599 89.4747 23.3027 89.0323 23.3027 88.1475V87.7604H23.2474ZM23.9116 93.8433C23.9116 92.9585 23.4688 92.5162 22.5832 92.5162H18.2658V95.5576H22.6385C23.5241 95.5576 23.9669 95.1152 23.9669 94.2304V93.8433H23.9116Z" fill="#CDD000"/>
<path d="M36.977 98.599H29.1172V95.5575H31.0545V86.4331H29.1172V83.3916H36.9216V86.4331H34.9843V95.5575H36.9216V98.599H36.977Z" fill="#CDD000"/>
<path d="M51.9743 98.3225C48.5979 98.7096 45.4429 98.8755 42.62 98.8755C41.1809 98.8755 40.1293 98.5437 39.4651 97.8801C38.8009 97.2165 38.4688 96.1658 38.4688 94.728V87.7603C38.4688 86.2672 38.8009 85.1612 39.5204 84.4423C40.1846 83.7787 41.2916 83.3916 42.8414 83.3916H50.6459V86.4331H43.7271C42.8414 86.4331 42.3986 86.8755 42.3986 87.7603V94.728C42.3986 95.0598 42.5093 95.3363 42.6754 95.5022C42.8968 95.7234 43.1182 95.7787 43.4503 95.7787C45.1108 95.7787 46.6606 95.7234 47.989 95.6681V92.516H45.1662V89.9169H51.9189V98.3225H51.9743Z" fill="#CDD000"/>
<path d="M68.0272 98.599H64.0973V86.4331H59.5586V83.3916H72.6213V86.4331H68.0826V98.599H68.0272Z" fill="#CDD000"/>
<path d="M87.8416 94.5068C87.8416 95.9999 87.5095 97.1059 86.79 97.8248C86.1257 98.4884 85.0187 98.8755 83.4689 98.8755H78.0446C76.5501 98.8755 75.4431 98.5437 74.7235 97.8248C74.0593 97.1612 73.6719 96.0552 73.6719 94.5068V87.5391C73.6719 86.046 74.004 84.94 74.7235 84.2211C75.3877 83.5575 76.4947 83.1704 78.0446 83.1704H83.4689C84.9634 83.1704 86.0704 83.5022 86.79 84.2211C87.4542 84.8847 87.8416 85.9907 87.8416 87.5391V94.5068ZM83.9117 87.5391C83.9117 86.6543 83.4689 86.2119 82.5833 86.2119H78.8748C77.9892 86.2119 77.5464 86.6543 77.5464 87.5391V94.5068C77.5464 95.3916 77.9892 95.834 78.8748 95.834H82.5833C83.4689 95.834 83.9117 95.3916 83.9117 94.5068V87.5391Z" fill="#CDD000"/>
<path d="M90 83.447H99.1328C100.627 83.447 101.734 83.7788 102.454 84.4977C103.118 85.1613 103.506 86.2673 103.506 87.8157V89.9724C103.506 91.4655 103.173 92.5714 102.454 93.2903C101.79 93.9539 100.683 94.341 99.1328 94.341H93.9299V98.7097H90V83.447ZM99.5756 87.7604C99.5756 86.8756 99.1328 86.4332 98.2472 86.4332H93.8745V91.189H98.2472C99.1328 91.189 99.5756 90.7466 99.5756 89.8618V87.7604Z" fill="#CDD000"/>
<path d="M14.4474 109.493H13.6172L16.7722 100.866H17.6024L20.7574 109.493H19.9272L17.215 101.917H17.1596L14.4474 109.493ZM15.0563 106.175H19.3183V106.894H15.0563V106.175Z" fill="#FF2A17"/>
<path d="M28.5614 107.005V103.023H29.3364V109.493H28.5614V108.387H28.5061C28.34 108.719 28.1186 108.995 27.7865 109.216C27.4544 109.438 27.067 109.548 26.5688 109.548C26.1814 109.548 25.7939 109.438 25.4618 109.272C25.1297 109.106 24.9083 108.829 24.6869 108.498C24.5209 108.166 24.4102 107.723 24.4102 107.226V103.023H25.1851V107.17C25.1851 107.668 25.3511 108.055 25.6279 108.387C25.9046 108.719 26.2921 108.829 26.7902 108.829C27.067 108.829 27.3437 108.774 27.6205 108.608C27.8972 108.442 28.1186 108.276 28.2847 108C28.4507 107.723 28.5614 107.392 28.5614 107.005Z" fill="#FF2A17"/>
<path d="M37.973 104.461L37.3088 104.627C37.2534 104.461 37.1427 104.239 37.032 104.074C36.9213 103.908 36.7553 103.797 36.5339 103.686C36.3125 103.576 36.0911 103.521 35.8143 103.521C35.3715 103.521 35.0394 103.631 34.7627 103.852C34.4859 104.074 34.3199 104.35 34.3199 104.682C34.3199 104.958 34.4306 105.18 34.5966 105.345C34.7627 105.511 35.0948 105.677 35.4822 105.733L36.4785 105.954C37.032 106.064 37.4195 106.286 37.6962 106.562C37.973 106.839 38.0837 107.226 38.0837 107.613C38.0837 108 37.973 108.276 37.807 108.608C37.5855 108.885 37.3088 109.106 36.9767 109.272C36.5892 109.438 36.2018 109.493 35.7036 109.493C35.0948 109.493 34.5413 109.327 34.1538 109.05C33.7664 108.774 33.4896 108.332 33.3789 107.834L34.0985 107.668C34.2092 108.055 34.3752 108.332 34.652 108.553C34.9287 108.774 35.2608 108.829 35.7036 108.829C36.2018 108.829 36.5892 108.719 36.9213 108.497C37.1981 108.276 37.3641 108 37.3641 107.668C37.3641 107.391 37.2534 107.17 37.0874 107.004C36.9213 106.839 36.6446 106.673 36.3125 106.617L35.2608 106.341C34.7073 106.23 34.2645 106.009 33.9878 105.677C33.711 105.401 33.6003 105.014 33.6003 104.571C33.6003 104.239 33.711 103.908 33.8771 103.631C34.0431 103.355 34.3199 103.133 34.652 102.968C34.9841 102.802 35.3715 102.746 35.8143 102.746C36.4232 102.746 36.866 102.857 37.2534 103.133C37.5855 103.576 37.8069 103.963 37.973 104.461Z" fill="#FF2A17"/>
<path d="M44.6153 103.023V103.687H41.5156V103.023H44.6153ZM42.5119 101.475H43.2868V107.779C43.2868 108.055 43.3422 108.276 43.4529 108.387C43.5636 108.553 43.6743 108.664 43.8403 108.719C44.0064 108.774 44.1725 108.829 44.3385 108.829C44.4492 108.829 44.5046 108.829 44.6153 108.829C44.6706 108.829 44.726 108.829 44.7813 108.774L44.9474 109.438C44.892 109.493 44.7813 109.493 44.6706 109.493C44.5599 109.493 44.4492 109.548 44.2832 109.548C44.0064 109.548 43.7296 109.493 43.5082 109.382C43.2315 109.272 43.0654 109.106 42.8994 108.829C42.7333 108.608 42.678 108.276 42.678 107.945V101.475H42.5119Z" fill="#FF2A17"/>
<path d="M49.0965 101.917C48.9304 101.917 48.8197 101.862 48.709 101.751C48.5983 101.641 48.543 101.53 48.543 101.364C48.543 101.198 48.5983 101.088 48.709 100.977C48.8197 100.866 48.9304 100.811 49.0965 100.811C49.2625 100.811 49.3732 100.866 49.4839 100.977C49.5946 101.088 49.65 101.198 49.65 101.364C49.65 101.53 49.5946 101.641 49.4839 101.751C49.3732 101.862 49.2625 101.917 49.0965 101.917ZM48.709 109.493V103.023H49.4839V109.493H48.709Z" fill="#FF2A17"/>
<path d="M54.5757 105.456V109.493H53.8008V103.023H54.5203V104.018H54.5757C54.7417 103.686 54.9631 103.41 55.2952 103.244C55.6274 103.023 56.0148 102.968 56.513 102.968C56.9558 102.968 57.3432 103.078 57.6753 103.244C58.0074 103.41 58.2842 103.686 58.4502 104.018C58.6163 104.35 58.727 104.792 58.727 105.29V109.493H57.9521V105.345C57.9521 104.792 57.786 104.405 57.5093 104.074C57.2325 103.742 56.7897 103.631 56.3469 103.631C56.0148 103.631 55.6827 103.686 55.4613 103.852C55.1845 104.018 54.9631 104.184 54.8524 104.461C54.631 104.737 54.5757 105.069 54.5757 105.456Z" fill="#FF2A17"/>
<path d="M68.7461 109.493V108.94L71.569 105.788C71.9564 105.346 72.2332 105.014 72.4546 104.737C72.676 104.461 72.842 104.184 72.9527 103.908C73.0634 103.631 73.1188 103.41 73.1188 103.134C73.1188 102.802 73.0634 102.525 72.8974 102.249C72.7313 102.028 72.5099 101.806 72.2885 101.696C72.0118 101.585 71.735 101.475 71.4029 101.475C71.0708 101.475 70.7387 101.53 70.462 101.696C70.1852 101.862 69.9638 102.028 69.8531 102.304C69.6871 102.581 69.6317 102.857 69.6317 103.189H68.8568C68.8568 102.691 68.9675 102.304 69.1889 101.917C69.4103 101.53 69.6871 101.253 70.0745 101.032C70.462 100.811 70.9048 100.7 71.4029 100.7C71.9011 100.7 72.2885 100.811 72.676 101.032C73.0634 101.253 73.3402 101.53 73.5616 101.862C73.783 102.194 73.8937 102.636 73.8937 103.023C73.8937 103.355 73.8383 103.631 73.7276 103.963C73.6169 104.24 73.4509 104.571 73.1741 104.959C72.8974 105.346 72.5099 105.788 72.0671 106.286L69.9085 108.664V108.719H74.1704V109.438H68.7461V109.493Z" fill="#FF2A17"/>
<path d="M81.0345 109.604C80.4256 109.604 79.9275 109.438 79.4847 109.106C79.0419 108.774 78.7098 108.276 78.4884 107.613C78.267 106.949 78.1562 106.175 78.1562 105.235C78.1562 104.295 78.267 103.521 78.4884 102.857C78.7098 102.194 79.0419 101.696 79.4847 101.364C79.9275 101.032 80.4256 100.811 81.0345 100.811C81.6433 100.811 82.1415 100.977 82.5843 101.364C83.0271 101.696 83.3592 102.249 83.5806 102.857C83.802 103.521 83.9127 104.295 83.9127 105.235C83.9127 106.175 83.802 106.949 83.5806 107.613C83.3592 108.276 83.0271 108.774 82.5843 109.106C82.1415 109.438 81.6433 109.604 81.0345 109.604ZM81.0345 108.885C81.6987 108.885 82.1968 108.553 82.5843 107.889C82.9717 107.226 83.1378 106.341 83.1378 105.124C83.1378 104.35 83.0271 103.687 82.861 103.134C82.695 102.581 82.4736 102.138 82.1415 101.862C81.8094 101.585 81.4219 101.419 81.0345 101.419C80.3703 101.419 79.8721 101.751 79.4847 102.415C79.0972 103.078 78.9312 103.963 78.9312 105.18C78.9312 105.954 79.0419 106.617 79.2079 107.17C79.374 107.723 79.5954 108.166 79.9275 108.442C80.2042 108.774 80.5917 108.885 81.0345 108.885Z" fill="#FF2A17"/>
<path d="M88.0078 109.493V108.94L90.8307 105.788C91.2181 105.346 91.4949 105.014 91.7163 104.737C91.9377 104.461 92.1038 104.184 92.2145 103.908C92.3252 103.631 92.3805 103.41 92.3805 103.134C92.3805 102.802 92.3252 102.525 92.1591 102.249C91.9931 102.028 91.7716 101.806 91.5502 101.696C91.2735 101.585 90.9967 101.475 90.6646 101.475C90.3325 101.475 90.0004 101.53 89.7237 101.696C89.4469 101.862 89.2255 102.028 89.1148 102.304C88.9488 102.581 88.8934 102.857 88.8934 103.189H88.1185C88.1185 102.691 88.2292 102.304 88.4506 101.917C88.672 101.53 88.9488 101.253 89.3362 101.032C89.7237 100.811 90.1665 100.7 90.6646 100.7C91.1628 100.7 91.5503 100.811 91.9377 101.032C92.3252 101.253 92.6019 101.53 92.8233 101.862C93.0447 102.194 93.1554 102.636 93.1554 103.023C93.1554 103.355 93.1001 103.631 92.9894 103.963C92.8787 104.24 92.7126 104.571 92.4359 104.959C92.1591 105.346 91.7717 105.788 91.3288 106.286L89.1702 108.664V108.719H93.4322V109.438H88.0078V109.493Z" fill="#FF2A17"/>
<path d="M97.582 109.493V108.94L100.405 105.788C100.792 105.346 101.069 105.014 101.291 104.737C101.512 104.461 101.678 104.184 101.789 103.908C101.899 103.631 101.955 103.41 101.955 103.134C101.955 102.802 101.899 102.525 101.733 102.249C101.567 102.028 101.346 101.806 101.124 101.696C100.848 101.585 100.571 101.475 100.239 101.475C99.9068 101.475 99.5746 101.53 99.2979 101.696C99.0211 101.862 98.7997 102.028 98.689 102.304C98.523 102.581 98.4676 102.857 98.4676 103.189H97.6927C97.6927 102.691 97.8034 102.304 98.0248 101.917C98.2462 101.53 98.523 101.253 98.9104 101.032C99.2979 100.811 99.7407 100.7 100.239 100.7C100.737 100.7 101.124 100.811 101.512 101.032C101.899 101.253 102.176 101.53 102.398 101.862C102.619 102.194 102.73 102.636 102.73 103.023C102.73 103.355 102.674 103.631 102.564 103.963C102.453 104.24 102.287 104.571 102.01 104.959C101.733 105.346 101.346 105.788 100.903 106.286L98.7444 108.664V108.719H103.006V109.438H97.582V109.493Z" fill="#FF2A17"/>
<path d="M44.8879 39.4287C44.7772 39.9817 44.6665 40.4794 44.7772 40.5347C44.8879 40.59 44.5004 42.0831 44.113 42.9679C43.6148 44.1845 42.6185 46.2858 42.0097 47.5024C41.4008 48.6084 39.7403 51.2075 39.1314 51.9264C39.0207 52.0923 38.5779 52.59 38.1905 53.0324C37.3602 54.0278 34.0392 57.2904 32.6001 58.6176C31.2717 59.7789 29.3897 61.1614 28.9469 61.3826C28.7809 61.4932 28.6148 61.5485 28.6148 61.6038C28.6148 61.7144 26.4562 63.0969 25.1831 63.7052C22.2495 65.1983 19.5927 66.0278 17.7108 66.0278H17.1573L17.0466 66.5808C16.9359 66.9126 16.8252 67.355 16.7698 67.5209C16.7145 67.6868 16.6591 67.908 16.6038 67.9633C16.6038 68.0739 16.3824 68.9586 16.1056 69.954C15.7181 71.5024 15.6074 71.9448 15.6074 73.1061C15.5521 74.4886 15.5521 74.7098 15.2753 74.7098C15.1646 74.7098 15.1093 74.8204 15.1093 75.0416C15.1093 75.4287 14.7218 75.8158 14.279 75.9264C14.0023 75.9817 13.9469 75.9817 13.8916 75.7052C13.8362 75.5393 13.6702 75.3734 13.6148 75.3734C13.5595 75.3734 13.3381 75.2628 13.1167 75.0416C12.8399 74.7651 12.7846 74.6545 12.8953 74.2121C12.9506 73.7697 12.9506 73.6038 12.7292 73.3826C12.5078 73.0508 12.5078 72.9402 12.5078 71.5577C12.6185 69.5669 12.8399 68.2951 13.5595 65.696C13.8916 64.59 13.8916 64.3688 13.7809 64.037C13.5595 63.484 13.5595 62.2674 13.8362 61.4932C13.9469 61.1614 14.113 60.8296 14.1683 60.8296C14.2237 60.8296 14.279 61.1614 14.279 61.5485C14.279 62.378 14.3897 62.7651 14.5558 62.2674C14.7772 61.2167 14.8879 61.0508 15.0539 61.0508C15.1646 61.0508 15.22 60.9402 15.1646 60.719C15.1093 60.4978 15.22 60.0554 15.4967 59.2812C15.7181 58.6729 16.2716 56.9033 16.7698 55.4103C17.268 53.8619 17.8215 52.1476 18.0429 51.6499C18.5964 50.2674 18.9285 49.4379 19.2606 48.6637C19.3713 48.3319 19.482 48.166 19.5927 48.166C19.648 48.166 19.7034 48.0554 19.7034 47.8895C19.7587 47.6683 20.2569 46.3411 20.8104 45.1245C20.9211 44.848 21.0318 44.5162 21.1425 44.3504C21.1978 44.1292 21.2532 44.0186 21.4193 44.0186C21.696 44.0186 21.8621 43.6868 21.696 43.5209C21.5853 43.4656 21.6407 43.2444 21.7514 42.9679C22.0281 42.0278 23.3012 39.0969 23.7993 38.0462C24.1314 37.4932 24.2975 36.9402 24.2975 36.9402C24.2421 36.8849 24.1868 36.8849 24.1868 36.9955C24.0761 37.1614 23.6333 37.3826 23.1905 37.4932C22.9691 37.5485 22.803 37.4932 22.5263 37.272C22.0281 36.9402 22.0835 36.6637 22.6923 36.2766C22.9691 36.1107 23.1905 35.9448 23.1905 35.8895C23.1905 35.8342 23.744 35.2259 24.4635 34.3964C25.7366 33.0139 25.958 32.7927 26.4008 32.2951C26.6222 32.0186 26.7883 31.9633 27.5078 31.8527C28.6148 31.7421 29.3344 31.908 29.8325 32.5163C30.3307 33.0692 30.4414 33.4563 30.3307 33.8987C29.8879 34.1199 29.7772 34.2858 29.7218 34.2858C29.6665 34.2858 29.5558 34.507 29.4451 34.7282C29.3344 35.0047 29.1683 35.2812 29.0576 35.4471C28.7255 35.7789 27.1204 38.5992 27.0097 39.0416C26.9543 39.2075 26.7883 39.5393 26.6222 39.8711C26.2901 40.3688 24.9063 43.2997 24.9063 43.4103C24.9063 43.4656 24.3528 44.7927 23.7993 45.8434C23.4672 46.507 23.4672 46.507 24.851 44.4057C26.5669 41.8619 28.3381 39.5946 30.0539 37.7697C34.3159 33.401 38.0798 31.2444 40.958 31.4103C42.7292 31.5209 43.7255 32.0739 44.5004 33.2351C45.4414 34.6729 45.5521 36.4978 44.8879 39.4287ZM14.7218 65.4748C14.6665 65.4195 14.3897 66.249 14.3897 66.4702C14.3897 66.5808 14.5004 66.4149 14.5558 66.0831C14.6665 65.7513 14.7218 65.4748 14.7218 65.4748ZM18.4303 56.1845C18.6517 55.6868 18.9838 54.802 19.2052 54.249C19.3713 53.7513 19.5927 53.0877 19.7034 52.8112C19.8141 52.5347 20.0908 51.8711 20.2569 51.2628C20.755 49.9356 21.1425 48.8849 21.53 48.1107C21.8621 47.4471 22.1942 46.3411 22.0835 46.2305C22.0281 46.1752 21.9174 46.4517 21.8067 46.7835C21.696 47.1153 21.4746 47.5577 21.3086 47.7789C21.1425 47.9448 20.8104 48.5531 20.6443 48.9955C20.4229 49.4932 20.1462 49.9356 20.0908 49.9356C19.9801 49.9909 19.9248 50.1568 19.9248 50.3227C19.9248 50.6545 19.5927 51.5946 19.2052 52.4241C19.0945 52.7006 18.9838 52.9771 18.9838 53.0877C18.9838 53.143 18.8731 53.2536 18.7624 53.2536C18.541 53.2536 18.541 53.3089 18.5964 53.4748C18.7071 53.8619 17.6554 56.7927 17.3233 57.1245C17.1019 57.3457 16.9912 57.5116 17.0466 57.8987C17.0466 58.1752 16.9912 58.4517 16.9359 58.507C16.8805 58.5623 16.7698 58.8941 16.7145 59.2812C16.6591 59.6683 16.4377 60.2213 16.327 60.6084C16.1609 60.9955 15.9949 61.3826 15.9949 61.4379C15.9949 61.6591 16.2163 61.3273 16.3824 60.7743C16.7698 59.9448 17.9322 57.1798 18.4303 56.1845ZM16.8805 64.7559C16.8252 64.7006 16.6591 64.7006 16.6038 64.7559C16.4931 64.8112 16.5484 64.8112 16.7145 64.8112C16.8805 64.8112 16.9359 64.7559 16.8805 64.7559ZM17.3787 62.1015C17.6001 61.6038 17.6001 61.4379 17.4894 61.3273C17.3787 61.272 17.3233 61.3273 17.268 61.4932C17.2126 61.6038 17.1019 61.9909 16.9912 62.3227C16.6591 63.0969 16.5484 63.5946 16.7145 63.5393C16.7698 63.484 16.8252 63.2628 16.8805 63.0416C16.9359 62.8204 16.9912 62.6545 17.0466 62.7098C17.1573 62.7098 17.268 62.4333 17.3787 62.1015ZM17.7661 64.7006C17.7661 64.6453 17.7108 64.59 17.6554 64.59C17.6001 64.59 17.5447 64.6453 17.4894 64.7006C17.434 64.7559 17.4894 64.8112 17.6001 64.8112C17.7108 64.8112 17.7661 64.7559 17.7661 64.7006ZM19.7034 63.6499C20.755 63.2628 21.1978 63.0969 20.9211 63.0969C20.8657 63.0969 20.3122 63.2628 19.7034 63.484C19.1499 63.7052 18.4303 63.9264 18.2089 63.9817C17.9322 64.037 17.7108 64.0923 17.7108 64.1476C17.7661 64.2582 18.4857 64.0923 19.7034 63.6499ZM42.8399 35.8342C42.7846 33.4563 42.6739 32.9033 42.1757 32.7374C41.8436 32.6269 40.2384 32.848 40.1277 32.9586C40.0724 33.0139 39.7403 33.2351 39.2975 33.401C38.0798 33.8987 36.1425 35.1153 35.8104 35.5577C35.755 35.613 35.6443 35.6683 35.4783 35.7236C35.3122 35.7789 35.2569 35.8342 35.2569 35.9448C35.2569 36.0554 35.1462 36.2213 34.9248 36.3319C34.7034 36.4425 34.0392 37.1061 33.375 37.7144C32.7108 38.3227 32.1573 38.8204 32.1019 38.8204C32.0466 38.8757 31.7698 39.1522 31.4931 39.484C31.1056 39.9817 30.9395 40.0923 30.7735 40.037C30.6628 39.9817 30.4967 40.037 30.4414 40.0923C30.386 40.2029 30.386 40.2029 30.5521 40.1476C30.6628 40.0923 30.7181 40.0923 30.7181 40.2029C30.7181 40.3135 30.4967 40.4794 30.22 40.5347C30.0539 40.5347 29.7772 40.8112 28.7255 42.3043C28.0613 43.1891 28.0613 43.2997 28.4488 42.9126C28.6148 42.7467 28.7809 42.5808 28.7809 42.4702C28.7809 42.4149 28.8362 42.3043 28.8362 42.3043C28.8916 42.3043 29.1683 42.0278 29.3897 41.696C29.8325 41.0877 30.0539 40.9218 30.0539 41.143C30.0539 41.1983 29.9986 41.3089 29.8325 41.4195C29.6665 41.5301 28.7809 42.6914 28.5595 43.0785C28.2827 43.5209 27.5078 44.7375 27.065 45.2351C26.8436 45.5669 26.6776 45.7881 26.6776 45.8434C26.6776 45.8987 26.4562 46.2305 26.1794 46.6176C25.9026 46.9494 25.6812 47.3365 25.6812 47.3918C25.6812 47.613 25.3491 47.8342 25.2938 47.6683C25.2384 47.5577 25.1831 47.613 25.0724 47.7236C24.9617 47.8895 24.9617 47.9448 25.1277 47.8342C25.4598 47.7236 25.3491 47.9448 25.017 48.4978C24.851 48.7743 24.5189 49.272 24.3528 49.6038C24.0207 50.1568 23.8547 50.378 23.8547 50.0462C23.8547 49.9909 23.91 49.825 23.91 49.7697C23.9654 49.7144 23.91 49.7697 23.7993 49.825C23.6886 49.9356 23.5779 50.1568 23.5226 50.3227C23.4672 50.5439 23.4672 50.5439 23.5779 50.4333C23.8547 50.0462 23.91 50.4333 23.6333 50.8204C23.3012 51.3181 20.9764 56.0739 20.5336 57.0139C20.4229 57.401 20.2015 57.6775 20.1462 57.7328C20.0908 57.7881 20.0355 57.8987 20.0355 58.0093C20.0355 58.2305 18.375 62.4886 18.0982 62.931C17.9875 63.0969 17.9322 63.2628 17.9322 63.2628C17.9322 63.484 20.755 62.4886 22.5263 61.6038C23.5779 61.1061 23.6333 61.1061 23.6333 61.272C23.6333 61.3273 23.4119 61.4932 23.1905 61.6038C22.9691 61.7144 22.4709 61.9909 22.1388 62.2674C21.8067 62.4886 21.4746 62.7098 21.3639 62.7098C21.3085 62.7651 21.2532 62.8204 21.3086 62.8204C21.3639 62.931 22.3049 62.4333 23.1351 61.825C23.7993 61.3826 23.9654 61.272 23.9654 61.4379C23.9654 61.6591 22.4156 62.8204 21.696 63.0969C20.6443 63.5946 18.7071 64.3135 18.2643 64.3688C17.7661 64.4241 17.6001 64.7006 18.0429 64.7006C18.2089 64.6453 18.375 64.6453 18.4303 64.59C18.4857 64.5347 18.6517 64.5347 18.8178 64.5347C18.9285 64.5347 19.1499 64.4794 19.2606 64.4241C19.648 64.2029 20.0355 64.037 20.8104 63.7605C22.0281 63.3181 23.2458 62.7651 23.7993 62.4886C24.0761 62.3227 24.4082 62.1568 24.5742 62.1015C24.7403 62.0462 25.1831 61.7697 25.5705 61.5485C25.958 61.272 26.899 60.6084 27.6739 60.1107C29.0576 59.1706 29.5004 58.8388 31.2717 57.1245C32.268 56.2398 32.3233 56.0739 31.327 56.9586C30.9395 57.2904 30.6628 57.5116 30.6628 57.4563C30.6628 57.401 30.6074 57.401 30.4967 57.5116C30.386 57.6222 30.3307 57.6222 30.3307 57.5116C30.3307 57.4563 30.4414 57.2351 30.6628 57.1245C33.2089 55.0232 36.8621 50.8757 38.744 48.1107C39.5189 46.8941 40.4598 45.2351 40.2938 45.401C40.0724 45.5116 40.0724 45.4563 40.6812 44.1845C41.0133 43.5762 41.4008 42.6914 41.5115 42.1937C41.6776 41.7513 41.899 41.1983 42.0097 40.9771C42.1204 40.7559 42.3418 39.9264 42.5078 39.2075C42.8399 38.0462 42.8399 37.825 42.8399 35.8342ZM18.375 59.8895C18.2643 60.0001 18.2089 60.2213 18.2089 60.2766C18.2089 60.3319 18.2643 60.2766 18.375 60.166C18.4857 60.0554 18.541 59.8342 18.541 59.7789C18.541 59.7236 18.4857 59.7789 18.375 59.8895ZM21.4746 51.0416C21.4746 51.0969 21.5853 51.0969 21.696 51.0416C21.8621 50.9863 21.8621 50.9863 21.8067 51.3734C21.7514 51.5946 21.696 51.8711 21.696 51.9817C21.6407 52.0923 21.6407 52.2029 21.5853 52.2582C21.4193 52.3688 21.0871 53.0877 21.0871 53.3642C21.0871 53.4748 21.0318 53.5854 20.9764 53.5854C20.8657 53.5854 20.6443 54.0278 19.482 56.6269C19.0945 57.5669 18.9838 57.7328 19.1499 57.8987C19.2606 58.1199 19.2052 58.2305 18.9838 58.7282C18.8178 59.06 18.6517 59.3918 18.6517 59.5024C18.7071 59.613 18.7071 59.613 18.7624 59.5024C18.8178 59.3918 18.9285 59.1706 19.0392 59.0047C19.1499 58.8388 19.2606 58.6176 19.2606 58.507C19.2606 58.3964 19.3159 58.3411 19.3713 58.3964C19.4266 58.4517 19.482 58.3411 19.482 58.2305C19.482 58.0646 19.5373 57.954 19.5927 58.0093C19.7034 58.0093 19.7034 57.954 19.7034 57.7881C19.648 57.5116 20.5336 55.5209 20.6997 55.6315C20.755 55.6868 20.8104 55.5762 20.8657 55.5209C20.9211 55.4103 20.8657 55.4103 20.8104 55.4103C20.755 55.4656 20.6997 55.4656 20.6997 55.4103C20.6997 55.2997 23.8547 48.9955 24.0207 48.7743C24.1314 48.6637 24.3528 48.2766 24.5742 47.9448C25.1277 46.8941 26.5115 44.7374 27.2864 43.6868C27.7292 43.1338 28.172 42.4702 28.2827 42.3043C28.6148 41.7513 30.1646 39.9817 31.2717 38.8204C32.9875 36.9955 35.8657 34.507 37.0281 33.8987C38.1351 33.2904 39.4635 32.6821 40.1831 32.5163C41.1794 32.2951 40.958 32.1845 39.9063 32.4057C38.9654 32.6268 38.2458 32.9033 38.2458 33.0692C38.2458 33.1245 38.1905 33.1798 38.0798 33.1245C37.8584 33.0139 37.6923 33.1798 36.53 33.8434C35.0355 34.7835 34.1499 35.5024 34.1499 35.7789C34.0945 35.8895 34.0392 36.0001 33.9285 35.9448C33.7071 35.8342 33.375 36.2213 33.4303 36.4425C33.4857 36.5531 33.4857 36.5531 33.2643 36.5531C33.0982 36.4978 33.0429 36.4978 33.0429 36.6084C33.0429 36.6637 33.0982 36.719 33.1536 36.6637C33.2089 36.6084 33.2643 36.6084 33.2089 36.719C33.1536 36.7743 33.0429 36.8296 32.8768 36.8296C32.6554 36.8296 32.4894 37.0508 32.6554 37.0508C32.7108 37.1061 32.7108 37.1614 32.6001 37.3273C32.434 37.4932 32.3787 37.4932 32.268 37.3826C32.1573 37.272 32.1573 37.3273 32.1573 37.6038C32.2126 37.7697 31.5484 38.378 31.327 38.378C31.0502 38.378 30.22 39.2075 30.22 39.484C30.2753 39.5393 30.2753 39.5946 30.22 39.5393C30.1646 39.4287 29.2237 40.2582 29.1683 40.4794C29.113 40.5347 28.8362 40.9218 28.5041 41.3089C28.172 41.696 27.8399 42.1384 27.8399 42.3596C27.7292 42.9126 27.6739 43.0232 27.5632 42.9126C27.5078 42.8573 27.4525 42.9679 27.5078 43.0232C27.5632 43.1338 27.5078 43.1891 27.3971 43.1338C27.2864 43.0785 26.8436 43.7421 26.7883 44.1292C26.6776 44.6269 26.2348 45.1798 25.958 45.1798C25.6812 45.1798 25.2384 45.7328 25.2384 46.1199C25.2384 46.2305 25.1277 46.3964 24.9617 46.507C24.851 46.6176 24.5742 47.06 24.4082 47.4471C24.0207 48.2213 23.744 48.4978 23.744 48.166C23.744 47.8342 24.9617 45.6775 25.958 44.2398C28.5041 40.5347 28.9469 39.9817 32.5447 36.6084C34.0392 35.2259 35.8657 33.8987 37.7477 32.9033C38.3565 32.5716 38.8547 32.2951 38.7993 32.2951C38.744 32.2951 38.4119 32.4057 37.9691 32.6269C37.1388 32.9586 35.5336 33.8987 35.2569 34.2858C35.1462 34.3964 35.0355 34.507 34.9248 34.4517C34.8694 34.3964 34.5373 34.5623 34.2052 34.8941C33.8731 35.1706 33.2643 35.7236 32.8215 36.1107C31.7698 36.9402 29.113 39.6499 28.3934 40.6453C26.899 42.6361 25.2938 44.9033 24.7403 45.8434C24.6296 46.0646 24.2421 46.6729 23.9654 47.06C23.6333 47.5024 23.4119 48.0001 23.4119 48.0554C23.4119 48.166 23.3565 48.2766 23.2458 48.3872C22.9137 48.2766 21.4746 50.8757 21.4746 51.0416ZM18.541 52.7006C18.5964 52.8112 18.5964 52.8665 18.6517 52.7559C18.7071 52.7006 18.7071 52.59 18.5964 52.5347C18.5964 52.5347 18.541 52.59 18.541 52.7006ZM18.9285 51.8711C18.9838 51.8158 19.0392 51.7052 18.9838 51.6499C18.9285 51.5946 18.8731 51.7052 18.8731 51.7605C18.8178 51.9264 18.8178 51.9817 18.9285 51.8711ZM19.648 50.0462C19.648 50.1568 19.7034 50.2121 19.7034 50.1015C19.7587 50.0462 19.7587 49.9356 19.7034 49.8803C19.648 49.825 19.648 49.9356 19.648 50.0462ZM19.9801 54.1384C20.0908 53.8619 20.0908 53.8619 19.9248 54.0831C19.8141 54.1937 19.7034 54.4149 19.7034 54.4149C19.7034 54.5808 19.8141 54.5255 19.9801 54.1384ZM20.2569 48.4978C20.3122 48.5531 20.3676 48.4978 20.4229 48.2766C20.4783 48.0554 20.4783 47.8895 20.4783 47.8895C20.4229 47.8342 20.2015 48.3872 20.2569 48.4978ZM36.4746 53.5301C36.4193 53.5301 36.1425 53.7513 35.9211 53.9172C35.6997 54.1384 35.4229 54.3043 35.3676 54.3043C35.3122 54.3043 35.0355 54.4149 34.8694 54.6361C34.648 54.802 34.5373 54.9679 34.648 54.9679C34.7587 54.9126 34.8141 54.9679 34.8141 55.0232C34.8141 55.0785 34.7587 55.1338 34.648 55.1338C34.5373 55.1338 34.4266 55.1891 34.3159 55.1891C34.2606 55.2444 34.2052 55.2444 34.0945 55.1891C33.7624 55.1338 33.0982 56.2951 33.3196 56.4057C33.4303 56.461 33.4303 56.5162 33.3196 56.5162C33.2643 56.5715 33.0982 56.6821 32.9875 56.7374C32.8768 56.848 32.8215 56.848 32.8215 56.7927C32.8215 56.7374 32.7661 56.6821 32.7108 56.6821C32.6554 56.6821 32.6001 56.7927 32.6001 56.9033C32.6001 57.1245 32.1019 57.4563 32.1019 57.2351C32.1019 57.1798 32.0466 57.1798 31.9912 57.2904C31.9359 57.401 31.8805 57.5669 31.9359 57.6222C31.9912 57.6775 31.9912 57.7881 31.8805 57.8434C31.8252 57.8987 31.7698 57.8434 31.7698 57.7881C31.7698 57.7328 31.7145 57.6775 31.6591 57.7328C31.6038 57.7881 31.5484 57.8434 31.6038 57.954C31.6591 58.0093 31.5484 58.1199 31.4931 58.2858C31.1056 58.6729 30.22 59.3365 30.1093 59.3365C30.0539 59.3365 29.8879 59.4471 29.7772 59.5577C29.6665 59.6683 29.4451 59.7789 29.3897 59.7236C29.2237 59.6683 28.8362 59.9448 28.8362 60.2213C28.8362 60.2766 28.7255 60.3319 28.6702 60.3319C28.4488 60.2766 28.006 60.5531 28.0613 60.719C28.172 60.8296 27.5632 61.272 27.3971 61.2167C27.3418 61.1614 27.065 61.3273 26.7329 61.6038C26.4562 61.825 26.1794 62.0462 26.1794 62.0462C25.958 62.1015 25.6259 62.2674 25.6259 62.378C25.6259 62.4333 25.5705 62.4886 25.4598 62.4886C25.3491 62.4886 25.2938 62.5439 25.2938 62.6545C25.2938 62.7098 25.2384 62.8204 25.0724 62.8204C24.6849 62.8757 24.6849 62.8757 24.3528 63.0416C24.1868 63.1522 23.8547 63.3181 23.5779 63.4287C23.3012 63.5393 23.0798 63.6499 23.0798 63.7605C23.0798 63.8158 23.0244 63.8158 22.9691 63.8158C22.8584 63.7605 22.7477 63.8158 22.637 63.9264C22.5816 64.037 22.4156 64.0923 22.4156 64.037C22.2495 63.9264 21.3639 64.2582 21.4746 64.3688C21.53 64.4241 21.4193 64.4794 21.3086 64.4241C21.1425 64.3688 21.0318 64.4241 20.9764 64.5347C20.9211 64.7006 21.0318 64.7006 21.8621 64.4241C22.4156 64.2582 23.2458 63.9264 23.744 63.6499C24.7956 63.2075 25.4598 62.8204 26.2901 62.2674C26.6222 62.0462 26.9543 61.8803 26.9543 61.8803C27.0097 61.8803 27.4525 61.5485 28.006 61.1061C28.5595 60.719 29.3897 60.0554 29.9432 59.7236C30.4414 59.3918 31.2163 58.7835 31.6591 58.4517C32.9322 57.401 35.2569 55.2997 35.3122 55.0232C35.3676 54.9126 35.6997 54.5808 36.0871 54.249C36.3085 53.8066 36.5853 53.5854 36.4746 53.5301ZM21.1425 51.9264C21.2532 51.6499 21.2532 51.6499 21.0871 51.8711C21.0318 51.9817 20.9211 52.1476 20.9211 52.2029C20.8657 52.3688 20.9764 52.3135 21.1425 51.9264ZM21.696 46.0093C21.8621 46.0093 21.9174 45.8987 21.9728 45.2904C21.9728 44.9033 22.0281 44.5163 21.9728 44.5163C21.9728 44.461 21.8621 44.7374 21.6407 45.1245C21.3085 45.8434 21.3639 46.0093 21.696 46.0093ZM22.2495 44.1292C22.3602 43.908 22.5816 43.4656 22.6923 43.0232C22.8584 42.6361 22.9137 42.249 22.9137 42.1937C22.8584 42.1937 22.803 42.3043 22.7477 42.4149C22.6923 42.5808 22.5263 42.9679 22.3602 43.355C22.0281 44.1292 21.9728 44.6269 22.2495 44.1292ZM22.1942 46.1752C22.2495 46.1752 22.3049 46.0093 22.3602 45.7881C22.4156 45.5669 22.4709 45.4563 22.4156 45.5116C22.3049 45.6222 22.1388 46.1752 22.1942 46.1752ZM22.637 45.2351C22.6923 45.1245 22.7477 45.0139 22.7477 44.9033C22.7477 44.7927 22.6923 44.8481 22.637 44.9586C22.5816 45.0692 22.5263 45.1798 22.5263 45.2351C22.5263 45.2904 22.5816 45.2904 22.637 45.2351ZM26.4562 45.7328C26.4008 45.6775 25.9026 46.4517 25.9026 46.6176C25.9026 46.6729 26.0133 46.507 26.2348 46.2305C26.3455 45.954 26.5115 45.7328 26.4562 45.7328ZM39.3528 50.1568C39.2421 50.0462 38.6886 50.5439 38.6886 50.7098C38.6333 50.8757 37.8584 51.7605 37.7477 51.6499C37.6923 51.5946 37.803 51.4287 37.8584 51.2075L38.0798 50.8757L37.803 51.1522C37.637 51.3181 37.4709 51.484 37.4156 51.5393C37.1942 51.5946 36.696 52.4241 36.696 52.6453C36.696 52.8665 36.7514 52.8665 36.8621 52.7559C36.9728 52.6453 37.0281 52.5347 37.0281 52.3688C37.0281 52.2029 37.0835 52.1476 37.2495 52.1476C37.5816 52.2029 39.2421 50.6545 39.1868 50.378C39.1314 50.2674 39.1314 50.1568 39.2421 50.1568C39.3528 50.1568 39.3528 50.1568 39.3528 50.1568ZM38.8547 49.2167C38.9654 49.0508 39.1314 48.8296 39.1314 48.7743C39.1314 48.719 39.0207 48.8296 38.8547 49.0508C38.4672 49.5485 38.4672 49.6038 38.8547 49.2167ZM40.2384 47.8342C40.1277 47.8895 39.9063 48.2213 39.7403 48.4978C39.6296 48.8296 39.4082 49.0508 39.4082 49.0508C39.2421 49.0508 38.5779 50.2121 38.6333 50.3227C38.6886 50.4333 38.9654 50.378 38.9654 50.2121C38.9654 50.1568 39.2421 49.6591 39.6296 49.0508C40.5152 47.6683 40.5152 47.7236 40.2384 47.8342ZM39.3528 48.3872C39.4082 48.3319 39.4635 48.2766 39.4635 48.2213C39.4635 48.166 39.4082 48.1107 39.3528 48.166C39.2975 48.2213 39.2421 48.2766 39.2421 48.3872C39.2421 48.4978 39.3528 48.4425 39.3528 48.3872ZM41.7329 45.6775C41.6222 45.7328 41.6222 45.8987 41.6222 46.0093C41.6776 46.0646 41.6222 46.1752 41.5669 46.1752C41.5115 46.1752 41.4562 46.1199 41.5115 46.0646C41.5669 46.0093 41.5115 45.8987 41.4562 45.8434C41.4008 45.7881 41.4008 45.6222 41.5115 45.401C41.6222 45.1798 41.6222 45.0139 41.5669 45.0139C41.5115 45.0139 41.4562 44.9586 41.4562 44.9033C41.4562 44.848 41.5669 44.7927 41.6222 44.848C41.8436 44.9586 41.8436 44.7927 41.6776 44.5163C41.5669 44.2951 41.5115 44.3504 41.4562 44.5715C41.3455 45.1245 40.7919 46.2305 40.4045 46.7282C39.9063 47.3918 39.851 47.613 40.3491 47.3365C40.5152 47.2812 40.5705 47.2812 40.6259 47.3918C40.6812 47.5024 40.7366 47.613 40.7366 47.613C40.7366 47.613 41.0133 47.2812 41.2901 46.9494C41.6222 46.5623 41.8436 46.1752 41.899 45.954C41.899 45.6222 41.899 45.5669 41.7329 45.6775ZM40.3491 31.9633C40.6259 31.9633 40.6812 31.908 40.5705 31.908C40.4598 31.8527 40.2384 31.8527 40.1277 31.908C39.9617 31.908 40.1277 31.9633 40.3491 31.9633ZM42.065 44.2951C42.0097 44.0739 41.8436 43.908 41.7329 44.0186C41.6776 44.0739 41.6776 44.1845 41.7329 44.2398C41.8436 44.4057 42.065 44.461 42.065 44.2951ZM42.5632 42.6914C42.4525 42.5808 42.3971 42.6361 42.2311 42.802C42.1757 42.9126 42.1204 43.1338 42.1757 43.1891C42.2311 43.2444 42.2311 43.4656 42.1204 43.6868C41.9543 44.2398 42.1757 44.0739 42.4525 43.4103C42.6185 42.9679 42.6739 42.7467 42.5632 42.6914ZM43.4488 41.2536C43.4488 41.143 43.3934 41.0324 43.3381 41.0324C43.2274 41.0324 43.006 41.5854 42.9506 42.1384L42.8399 42.5808L43.172 42.0278C43.2827 41.696 43.4488 41.3642 43.4488 41.2536ZM44.0023 35.9448C43.9469 35.8895 43.9469 36.0001 43.9469 36.1107C43.9469 36.2213 44.0023 36.2213 44.0023 36.166C44.0023 36.0554 44.0023 36.0001 44.0023 35.9448Z" fill="white"/>
<path d="M60.9931 56.7374C60.8271 56.848 60.661 57.1245 60.6057 57.2904C60.6057 57.4563 60.495 57.6222 60.495 57.6222C60.4396 57.6222 60.3843 57.6775 60.3843 57.7328C60.3843 57.7881 59.9968 58.2857 59.4433 58.894C58.8898 59.447 58.447 60 58.447 60.0553C58.447 60.2212 56.7865 61.7696 56.7311 61.7143C56.6758 61.659 56.6204 61.7696 56.6204 61.8249C56.6204 62.212 54.2403 63.9816 52.8012 64.5899C51.4175 65.1982 50.4212 65.2535 49.5355 64.8664C49.1481 64.7005 48.5946 64.2028 48.5392 63.9263C48.5392 63.871 48.4285 63.7051 48.2625 63.5392C47.875 63.2074 47.6536 62.5991 47.6536 61.8249C47.6536 61.2719 47.8197 60.1659 48.0411 59.8341C48.0964 59.7235 48.2625 59.3364 48.3732 58.894C48.8713 57.4563 49.8123 55.3549 50.2551 54.4701L50.7533 53.53L50.4212 53.7512C50.1997 53.8618 49.8676 54.2489 49.6462 54.5254C49.3695 54.9678 49.2588 55.0784 48.982 55.1337C48.7053 55.189 48.4285 55.4655 47.5983 56.2397C47.0448 56.7927 46.4913 57.2351 46.4359 57.2351C46.3806 57.2351 46.3252 57.2904 46.3252 57.401C46.3252 57.6222 45.9378 58.1752 45.9378 57.954C45.9378 57.8987 45.8271 58.0092 45.7164 58.1751C45.6057 58.341 45.2182 58.8387 44.8307 59.3364C44.4433 59.8341 43.613 60.8848 42.9488 61.7143C41.4544 63.6498 41.2883 63.871 40.4027 64.5899C39.5171 65.3641 39.2957 65.4194 38.8529 65.1982C38.6315 65.0876 38.4654 64.977 38.3547 64.8664C38.2994 64.7558 38.1887 64.7005 38.1333 64.7005C38.0226 64.7005 37.9119 64.3134 38.0226 64.2581C38.078 64.2028 38.078 64.1475 37.9673 64.0922C37.4138 63.6498 37.3584 62.765 37.9119 61.5484C38.1333 61.1613 38.2994 60.8295 38.3547 60.8295C38.4654 60.8295 38.4654 60.8295 38.1333 61.5484C37.8012 62.212 37.6352 63.1521 37.7459 63.3733C37.8012 63.4839 37.8566 63.4839 37.8566 63.318C37.8566 63.2074 37.9673 62.9309 38.078 62.6544C38.244 62.3226 38.2994 62.1567 38.244 61.9908C38.1887 61.8249 38.244 61.659 38.6315 61.106C39.0743 60.4424 39.185 60.1659 38.8529 60.4424C38.7422 60.4977 38.6868 60.4977 38.6868 60.4424C38.6868 60.3871 38.7422 60.3318 38.7975 60.3318C38.8529 60.3318 38.9636 60.1106 39.1296 59.9447C39.2403 59.7235 39.4617 59.3917 39.5724 59.1705C39.9045 58.7834 40.3474 58.1199 40.5688 57.7881C41.0116 57.0692 42.0079 55.742 42.1186 55.6867C42.1739 55.6314 42.2293 55.5208 42.2293 55.4102C42.2293 55.3549 42.4507 54.9125 42.7828 54.5254C43.1149 54.1383 43.3363 53.7512 43.3363 53.7512C43.2809 53.6406 44.1665 52.6452 45.2736 51.3733C45.9378 50.7097 46.3252 50.3226 46.4913 50.2673C46.602 50.2673 46.9341 50.0461 47.1555 49.8802C47.709 49.3825 48.2071 49.2166 48.8713 49.3825C49.1481 49.4378 49.4248 49.5484 49.5355 49.659C49.5909 49.7143 49.8123 49.8802 50.0337 49.9908C50.2551 50.1567 50.4765 50.4332 50.6426 50.8203C50.8086 51.1521 50.9747 51.3733 51.0854 51.4839C51.1407 51.5392 51.3068 51.7051 51.4175 51.8157C51.5282 51.9263 51.7496 52.0369 51.8049 52.0369C52.0263 52.0369 52.2477 52.7005 52.2477 53.1982C52.2477 53.53 52.137 54.0277 51.9156 54.6913C51.6942 55.189 51.4175 56.0738 51.2514 56.6268C51.0854 57.1798 50.6426 58.2857 50.3105 59.1705C49.5909 60.9401 49.2588 62.0461 49.2588 62.8756C49.2588 63.4286 49.2588 63.4839 49.4802 63.5392C49.8676 63.6498 50.4212 63.5392 51.1961 63.2074C52.8566 62.4332 54.185 61.5484 56.0669 59.9447C56.5651 59.447 56.8972 59.2811 57.0079 59.3364C57.0632 59.3917 57.4507 59.0599 58.0595 58.5069C58.7237 57.8434 59.0558 57.5669 59.1112 57.6775C59.1665 57.7881 59.0558 57.954 59.0005 58.0646C58.8898 58.1751 58.7791 58.341 58.7791 58.3963C58.8344 58.3963 59.1112 58.1751 59.4433 57.8434C59.7754 57.5116 60.1075 57.2351 60.2182 57.1798C60.3289 57.1245 60.4396 57.0692 60.495 56.9586C60.5503 56.6821 60.9931 56.295 61.1592 56.295C61.3252 56.3503 61.2699 56.4609 60.9931 56.7374ZM48.9267 51.2074C48.8713 51.1521 47.3769 52.3687 47.1555 52.6452C46.9341 52.8664 46.768 52.8664 46.8787 52.7005C46.9341 52.5899 46.9341 52.5899 46.8234 52.5899C46.768 52.6452 46.7127 52.7558 46.7127 52.8111C46.7127 53.0323 46.3252 53.4747 45.1628 54.7466C44.7754 55.1337 44.1112 55.9632 43.613 56.6268C43.1149 57.2904 42.6167 57.8987 42.5614 58.0093C42.2293 58.3963 40.5688 61.1613 40.5688 61.3825C40.5688 61.5484 40.7902 61.3272 41.7311 60.2212C43.5577 58.0646 43.9451 57.5669 44.0005 58.0093C44.0005 58.0646 44.0558 58.0646 44.0558 57.954C44.1112 57.8434 44.1112 57.7328 44.0558 57.6222C44.0005 57.5669 44.3879 57.1245 44.9414 56.4609C45.7717 55.5208 45.9378 55.4102 46.1592 55.4102C46.3806 55.4655 46.3806 55.4102 46.2699 55.2996C46.1592 55.189 46.2145 55.0231 47.1001 54.1936C48.0411 53.2535 48.1518 53.0876 48.4839 52.2581C48.7606 51.7051 48.9267 51.2627 48.9267 51.2074ZM41.1223 57.8987C41.1223 58.0645 41.233 58.0093 41.3437 57.7881C41.399 57.6775 41.4544 57.5669 41.399 57.5669C41.3437 57.5116 41.2883 57.5669 41.2883 57.6775C41.2883 57.7328 41.233 57.7881 41.1776 57.7881C41.1223 57.7881 41.1223 57.8434 41.1223 57.8987ZM46.3806 55.8526C45.3843 56.9033 44.3879 57.954 44.4433 57.954C44.4986 57.954 44.9968 57.401 45.661 56.6821C46.4359 55.8526 46.8787 55.4102 46.9894 55.4102C47.1001 55.4102 47.1555 55.3549 47.1001 55.2996C47.1001 55.2443 47.1555 55.0784 47.2662 54.9125C47.4322 54.8572 46.9894 55.2443 46.3806 55.8526ZM45.7717 57.1798C45.7164 57.0692 45.7164 57.0139 45.6057 57.1245C45.495 57.1798 45.495 57.2351 45.6057 57.3457C45.7164 57.5669 45.8271 57.4563 45.7717 57.1798Z" fill="white"/>
<path d="M73.8919 55.1891C73.7258 55.7421 73.6705 55.8527 73.0616 56.5716C72.2313 57.5117 71.8992 57.7329 71.069 57.7882C70.5708 57.8435 70.3494 57.8435 70.1834 57.7329C70.0727 57.6776 69.8513 57.567 69.7406 57.5117C69.1871 57.2905 68.0247 55.6315 67.8033 54.802C67.748 54.5255 67.6373 53.8067 67.5819 53.2537C67.5266 52.7007 67.4712 52.1477 67.4712 52.0924C67.4159 52.0371 67.3605 52.0371 67.0837 52.1477C66.8623 52.2583 66.807 52.3136 66.8623 52.3689C66.9177 52.4242 66.9177 52.4242 66.807 52.4242C66.6963 52.3689 66.2535 52.756 66.3642 52.8666C66.4195 52.9219 66.4195 52.9219 66.3088 52.9219C66.1981 52.8666 65.5339 53.4749 65.0911 54.0278C64.9804 54.1384 64.8697 54.249 64.8144 54.249C64.7037 54.3043 64.4269 54.5808 64.3716 54.7467C64.3716 54.8573 64.2609 54.9679 64.2055 54.9679C64.0948 55.0232 64.0395 55.0785 64.0395 55.1891C64.0948 55.2444 63.9841 55.4103 63.9288 55.5209C63.652 55.8527 63.3199 56.3504 62.7111 57.3458C62.379 57.8988 62.0468 58.3965 62.0468 58.5071C61.9915 58.5624 61.8808 58.8389 61.8254 59.0048C61.438 59.9449 61.2719 60.332 60.7738 61.1615C60.497 61.6592 60.1649 62.2122 60.0542 62.3781C59.9989 62.544 59.6668 63.0417 59.4454 63.4841C59.1686 63.9265 58.8919 64.4242 58.7812 64.6454C58.5598 65.1431 57.8956 65.862 57.6742 65.862C57.6188 65.862 57.4527 65.862 57.3974 65.8067C57.342 65.8067 57.2313 65.7514 57.176 65.6961C57.1206 65.6408 57.0099 65.5855 56.8992 65.5302C56.7885 65.4749 56.6778 65.4196 56.6225 65.3643C56.5671 65.2537 56.5118 65.0325 56.3457 64.8666L56.1797 64.5348L56.3457 63.7606C56.6225 62.3781 57.2867 60.4426 58.3384 58.12C58.5044 57.7329 58.7812 57.014 58.9472 56.6269C59.1133 56.2398 59.39 55.5209 59.6114 55.0785C59.8328 54.5808 60.1096 53.862 60.331 53.3643C60.7184 52.4242 60.9952 51.8712 61.5487 50.9311C61.7147 50.5993 62.0468 49.991 62.2129 49.6039C62.379 49.2168 62.6004 48.8297 62.7111 48.7744C62.7664 48.6638 62.8218 48.5532 62.8218 48.4979C62.8218 48.4426 62.8771 48.3873 62.9878 48.3873C63.8734 48.2214 63.8734 48.2214 64.0395 48.4426C64.1502 48.5532 64.2609 48.6085 64.3162 48.6085C64.4823 48.6085 64.4823 48.885 64.3162 49.2168C64.2609 49.3274 64.2055 49.5486 64.2055 49.6039C64.2055 49.6592 64.0395 49.991 63.8181 50.3781C63.2092 51.4288 62.6557 52.5348 62.4343 53.2537C62.3236 53.6408 61.8808 54.6361 61.4933 55.5209C60.8291 57.1246 60.6631 57.6223 60.7184 57.6223C60.7738 57.6223 60.8845 57.4011 61.1059 57.0693C61.438 56.5716 61.6594 56.3504 61.4933 56.7375C61.438 56.8481 61.3826 56.9587 61.3826 56.9587C61.3273 57.0693 60.497 58.4518 60.331 58.7836C59.9989 59.4472 60.2756 59.1707 60.9398 58.0094C61.3273 57.4011 61.8808 56.461 62.2129 56.0739C62.9878 54.8573 65.0911 52.3136 65.7553 51.7606C66.0874 51.4841 66.2535 51.2629 66.2535 51.2629C66.1428 51.2629 65.3125 51.9265 65.0358 52.203C64.3716 52.8666 62.8771 54.7467 62.2129 55.7421C61.8254 56.3504 61.4933 56.6822 61.6594 56.2951C61.7701 55.9633 63.5413 53.6408 64.3716 52.7007C65.2018 51.7053 65.7553 51.2076 66.3088 50.9864C66.7516 50.7652 67.8033 50.9864 67.9694 51.3182C68.0247 51.4288 68.1354 51.5394 68.1908 51.5947C68.4675 51.7606 68.7996 52.3136 68.9657 52.8113C69.021 53.0325 69.1871 53.862 69.2978 54.5808C69.5192 55.908 69.7406 56.5716 69.962 56.6822C70.0173 56.7375 70.2941 56.7375 70.5155 56.6822C70.9029 56.6269 71.069 56.5716 71.7885 56.1292C72.2313 55.7974 72.8402 55.2997 73.1723 55.0232C74.1133 54.0832 74.1686 54.1385 73.8919 55.1891ZM57.342 63.7053C57.2867 63.7606 57.2313 63.8712 57.2313 63.9265C57.2313 63.9818 57.2867 63.9818 57.2867 63.9818C57.342 63.9265 57.342 63.8712 57.3974 63.7606C57.4527 63.5947 57.4527 63.5947 57.342 63.7053ZM60.1096 56.5716C60.1096 56.5163 60.0542 56.5163 59.9435 56.5163C59.8328 56.5163 59.7775 56.6269 59.7221 56.7928C59.6668 56.9034 59.6668 57.014 59.6668 57.014C59.7221 57.014 59.6668 57.1246 59.6114 57.2352C59.5007 57.4011 58.9472 58.6177 58.9472 58.7283C59.0026 58.7836 59.0026 58.7283 59.0579 58.673C59.1133 58.6177 59.1133 58.6177 59.1133 58.7283C59.0579 58.7836 59.0026 58.8389 59.0026 58.7836C58.9472 58.7836 58.8919 58.8389 58.8919 58.8942C58.8365 59.0048 58.6705 59.5025 58.4491 60.0002C58.0063 61.0509 57.8402 61.5486 57.9509 61.4933C58.0063 61.438 58.0063 61.4933 58.0063 61.5486C57.9509 61.6039 57.9509 61.6592 57.8956 61.6592C57.8402 61.6039 57.8402 61.6039 57.8956 61.7145C57.9509 61.8251 57.8956 62.1569 57.7849 62.1016C57.7295 62.1016 57.7295 62.1569 57.7849 62.2122C57.8402 62.2675 57.7849 62.3228 57.6742 62.3228C57.6188 62.3228 57.5635 62.3781 57.6188 62.4334C57.6742 62.4887 57.6188 62.7099 57.5635 62.8758C57.3974 63.2629 57.3974 63.3182 57.6188 62.9864C57.6742 62.8758 58.0063 62.1569 58.283 61.3827C58.5598 60.6085 58.8365 60.0002 58.8365 59.8896C58.8919 59.8343 59.0026 59.5025 59.0579 59.2813C59.1133 59.0048 59.224 58.7283 59.2793 58.7283C59.3347 58.673 59.3347 58.6177 59.3347 58.5071C59.3347 58.4518 59.39 58.2306 59.5007 58.0647C59.5561 57.8988 60.1096 56.6822 60.1096 56.5716ZM59.8328 56.4057C59.8328 56.461 59.8328 56.461 59.8328 56.4057C59.8882 56.461 59.8882 56.3504 59.9435 56.2398C60.0542 56.0739 60.0542 56.0739 59.8882 56.1845C59.8882 56.2951 59.8328 56.3504 59.8328 56.4057ZM60.1096 55.7974C60.0542 55.8527 60.0542 55.908 60.0542 55.908C60.1096 56.0186 60.1096 56.0186 60.1649 55.8527C60.1649 55.7974 60.1649 55.7974 60.1096 55.7974Z" fill="white"/>
<path d="M82.5813 41.1982C80.0352 46.0093 79.6477 46.7835 78.8728 48.6637C78.3193 50.0462 77.489 51.871 77.1016 52.5899C76.0499 54.5254 73.5038 61.7697 72.3968 65.7512C72.1754 66.5807 71.8433 67.742 71.7326 68.1844C70.7916 71.3365 70.1828 76.0922 70.3488 78.636C70.4042 79.4102 70.6809 80.3503 70.847 80.4056C70.9023 80.4056 71.2344 80.2397 71.5665 80.0185C71.8986 79.7973 72.2307 79.6314 72.3414 79.6314C72.5628 79.6314 72.9503 81.1798 72.7842 81.3457C72.7289 81.4563 72.6182 81.6222 72.6182 81.7328C72.5628 82.0646 71.8433 82.2858 71.3451 82.2305C71.1237 82.1752 70.7916 82.0646 70.5702 81.954C70.3488 81.8434 70.0721 81.6222 69.906 81.4563C69.6846 81.2904 69.5186 81.1798 69.4079 81.1798C69.3525 81.1245 69.0204 80.7927 68.7436 80.3503C67.8027 78.9678 67.6366 76.8664 68.1348 72.7743C68.4669 70.0646 68.9097 67.9632 69.906 64.3134C72.1754 56.1844 75.109 48.8296 79.7584 40.1475C79.537 40.1475 79.4263 40.1475 79.4263 40.1475C79.4263 40.0922 74.3894 40.5346 74.2234 40.6452C74.168 40.7005 74.168 40.7005 68.3562 41.1982C63.5407 41.6406 60.7178 41.9171 58.3931 42.1936C57.4521 42.3042 54.8507 42.4148 54.6292 42.4148C54.4078 42.3595 54.0204 41.9724 54.0204 41.7512C54.0204 41.6406 53.965 41.5853 53.9097 41.6406C53.7436 41.6406 53.7436 41.0876 53.9097 40.977C53.965 40.9217 54.0204 40.8111 54.0204 40.7005C54.0757 40.5346 54.0757 40.5346 54.9614 40.5346C55.7916 40.5346 55.7916 40.5346 56.1237 40.3134C56.6219 40.0369 57.3414 40.0922 57.6735 40.424C57.7842 40.5899 57.8949 40.5899 58.3377 40.5346C58.6145 40.4793 59.8322 40.424 60.9946 40.3134C62.1569 40.2028 63.3193 40.1475 63.5407 40.0922C63.7621 40.0922 63.9281 40.0922 63.9281 40.1475C63.9281 40.2028 63.8174 40.2028 63.6514 40.2028C63.4853 40.2028 63.2639 40.2581 63.1532 40.2581C62.5997 40.3687 65.7547 40.2028 68.6883 39.9263C69.2418 39.871 71.013 39.7051 72.6182 39.5945C74.2233 39.484 76.216 39.3181 77.0462 39.2628C77.8765 39.1522 78.7621 39.0969 79.0388 39.0969C79.3156 39.0416 79.7031 39.0416 79.9798 39.0416L80.3673 38.9863C81.3082 37.272 83.3562 33.6775 83.6883 33.1798C83.9097 32.848 84.0757 32.4609 84.0757 32.3503C84.1311 31.9632 84.6293 31.6314 85.0167 31.6867C85.4595 31.742 86.2898 32.2397 86.2898 32.4056C86.2344 32.4609 86.4005 32.5162 86.5665 32.5162C87.12 32.5715 87.3968 33.7328 86.954 34.0646C86.8433 34.1752 86.7326 34.2858 86.7326 34.3964C86.7326 34.6176 86.0684 35.6683 85.4595 36.3872C85.1274 36.8296 84.5739 37.6591 83.965 38.6545C86.1791 38.4886 88.7252 38.2674 89.7769 38.2121C90.9392 38.1568 92.2676 38.1015 95.0905 38.1015C98.7436 38.1015 98.8543 38.1015 99.5739 38.2121C100.293 38.3227 101.124 38.7098 101.29 38.8757C101.345 38.931 101.4 39.0969 101.4 39.2628C101.4 39.3734 101.456 39.5392 101.511 39.5945C101.622 39.7051 101.677 39.9816 101.567 40.3134C101.511 40.5346 100.626 41.1429 100.404 41.1429C100.349 41.1429 100.183 41.1429 100.072 41.1982C99.74 41.3088 98.0794 41.53 97.9134 41.53C97.858 41.4747 97.5813 41.4747 97.2492 41.4747C96.8617 41.4747 96.6403 41.4194 96.585 41.3641C96.5296 41.3088 96.3636 41.3088 96.2529 41.3088C96.0315 41.3088 96.0315 41.1982 96.3082 41.1429C97.0831 41.0323 98.3008 40.6452 98.3008 40.5899C98.3008 40.4793 99.1311 40.1475 99.6846 40.0369C100.017 39.9263 100.072 39.871 99.9614 39.8157C99.6846 39.7051 96.1422 39.4286 93.5407 39.3734C92.8765 39.3181 88.7252 39.484 87.3968 39.5945C86.8433 39.6498 86.013 39.6499 85.4595 39.7052C84.6292 39.7605 83.799 39.8157 83.2455 39.8157C83.1348 40.2581 82.858 40.7005 82.5813 41.1982ZM73.8359 39.9263C73.8359 39.871 73.7805 39.871 73.7252 39.871C73.6698 39.9263 73.4484 39.9263 73.227 39.9263C72.5628 39.9816 70.2381 40.1475 68.965 40.2581C68.3008 40.3134 67.2492 40.424 66.585 40.4793C65.9761 40.5346 65.478 40.5899 65.4226 40.5899C65.3673 40.6452 65.9208 40.5899 67.6366 40.4793C68.2455 40.424 69.3525 40.3134 70.0721 40.2581C70.847 40.2028 71.8433 40.1475 72.3414 40.0369C73.6698 39.9816 73.8359 39.9816 73.8359 39.9263ZM79.9244 42.1936C79.8137 42.3595 79.5924 42.636 79.4263 42.8019C79.0942 43.1337 77.2676 46.6176 77.1569 47.06C77.1569 47.2259 77.1016 47.3365 77.0462 47.3365C76.9909 47.3365 76.9909 47.3918 76.9909 47.5024C76.9909 47.7236 76.6034 48.5531 75.7732 50.1015C75.5518 50.4886 75.3857 50.8757 75.3857 50.931C75.3857 50.9863 75.275 51.2628 75.0536 51.4839C74.6662 52.1475 73.0056 56.3503 72.0093 59.2812C71.5665 60.6637 71.1237 61.7697 71.0684 61.7144C71.013 61.7144 70.6809 62.6545 70.3488 63.8158C69.6846 66.1936 69.5739 66.4701 69.7953 66.4701C69.906 66.4701 69.74 66.8572 69.6293 66.9678C69.5739 67.0231 69.4078 67.5208 69.2418 68.1844C69.0757 69.0139 69.0204 69.3457 69.1311 69.5669C69.2418 69.8987 69.2418 69.954 69.0757 69.8987C68.8543 69.8434 68.3008 74.2121 68.4115 75.0969C68.4669 75.4287 68.4669 76.0922 68.4669 76.5346C68.4115 78.0277 68.5776 77.1982 68.965 74.2674C69.1864 72.4425 69.4632 70.8388 69.6846 69.954C69.906 69.1798 70.0721 68.2397 70.1828 67.7973C70.2381 67.4102 70.4595 66.6913 70.5702 66.1936C70.7363 65.6959 70.9577 64.9217 71.1237 64.3687C71.2344 63.8158 71.5112 62.931 71.6772 62.4333C71.7879 61.9356 72.0093 61.3273 72.0647 61.1061C72.12 60.8849 72.2307 60.5531 72.2861 60.3319C72.6735 59.3365 73.1717 57.8434 73.227 57.6775C73.2824 57.4563 74.7769 53.5853 75.7178 51.2075C76.382 49.6591 78.7067 44.6821 79.6477 42.9125C80.2012 41.9724 80.2566 41.7512 79.9244 42.1936ZM69.4632 74.5992C69.4078 74.3227 69.4079 74.5992 69.3525 75.484C69.2971 76.8111 69.2971 77.4747 69.4079 77.4194C69.4632 77.4194 69.4632 76.8664 69.4632 76.2581C69.4632 75.7051 69.5185 75.1522 69.5185 75.0416C69.5739 74.9863 69.5739 74.7651 69.4632 74.5992ZM69.6846 72.6084C69.6293 72.5531 69.6292 72.6084 69.5739 72.7743C69.5739 72.8849 69.6293 72.9402 69.6293 72.8296C69.6293 72.719 69.74 72.6637 69.6846 72.6084ZM75.4964 52.8111C74.9983 54.083 74.8876 54.3595 74.9983 54.4701C75.109 54.5807 75.109 54.636 74.9429 54.5807C74.8322 54.5807 74.6108 54.9678 74.168 56.0738C73.2824 58.2858 72.5075 60.4978 72.0093 62.4333C71.8433 62.931 71.5112 64.0922 71.2344 65.0323C70.9577 65.9171 70.6256 67.189 70.4595 67.7973C70.3488 68.4609 70.1274 69.3457 70.0167 69.8987C69.906 70.3964 69.74 71.1706 69.6846 71.613C69.5739 72.7743 69.7953 72.0001 70.1274 70.2858C70.3488 69.1245 70.4595 68.7374 70.6256 68.6268C70.847 68.5162 70.847 68.4609 70.6809 68.2397C70.5702 68.0185 70.5702 67.9632 70.7363 67.6314C70.847 67.4102 70.9577 67.0784 71.013 66.8572C71.0684 66.5254 71.2344 65.9171 71.954 63.7051C72.0647 63.4286 72.0647 63.1522 72.0647 63.1522C72.0093 63.0969 72.0093 62.9863 72.0093 62.8204C72.0647 62.7098 72.1754 62.5992 72.2307 62.6545C72.3414 62.7651 72.5628 62.1015 72.7842 60.9402C72.8396 60.719 72.8949 60.4425 73.0056 60.2766C73.1163 60.166 73.3377 59.5577 73.5038 59.0047C73.8912 57.6775 74.2787 56.6268 74.5554 56.2397C74.6661 56.0738 74.7769 55.6867 74.8876 55.4102C74.9429 55.0784 74.9983 54.8572 75.109 54.8019C75.1643 54.7466 75.275 54.4148 75.3304 54.0277C75.4411 53.6406 75.5518 53.3641 75.6071 53.4747C75.6625 53.5853 75.6625 53.53 75.6625 53.3641C75.6071 53.0876 75.9392 52.3134 76.1606 52.1475C76.2713 52.0922 76.382 51.7605 76.4374 51.3181C76.4927 50.931 76.5481 50.5992 76.6034 50.5992C76.6588 50.5992 76.7695 50.4886 76.8248 50.2674C76.8802 50.1015 76.9355 49.9356 76.9909 49.9356C77.1016 49.9356 77.489 48.8296 77.5444 48.4978C77.6551 48.0001 76.4927 50.4333 75.4964 52.8111ZM74.334 39.9263C74.334 39.871 74.2787 39.871 74.2234 39.871C74.168 39.871 74.168 39.9263 74.168 39.9263L74.2234 39.9816C74.2787 39.9816 74.334 39.9263 74.334 39.9263ZM74.8322 39.8157C74.8322 39.7604 74.7769 39.7604 74.7769 39.7604C74.7215 39.7604 74.6662 39.8157 74.6108 39.8157C74.5555 39.871 74.6108 39.871 74.7215 39.871C74.7215 39.9263 74.8322 39.871 74.8322 39.8157ZM75.9946 39.7052C75.8839 39.7052 75.7732 39.7604 75.7732 39.7604C75.7732 39.8157 75.8839 39.8157 76.0499 39.7604C76.216 39.7604 76.1606 39.7052 75.9946 39.7052ZM78.4853 39.5393C78.4853 39.484 76.3267 39.6499 76.2713 39.7052C76.216 39.7605 76.4374 39.7605 76.7141 39.7052C76.9909 39.7052 77.489 39.6498 77.8211 39.6498C78.2086 39.6498 78.4853 39.5946 78.4853 39.5393ZM86.954 38.9863C87.12 38.931 87.2307 38.931 87.1754 38.9863C87.12 39.0416 87.2861 39.0416 87.5075 39.0416C87.8396 39.0416 87.8396 39.0416 87.6182 38.9863C87.3968 38.931 87.3414 38.931 87.5075 38.8757C87.5628 38.8757 87.8949 38.8757 88.1717 38.931C88.6698 38.9863 89.0573 38.9863 89.2787 38.8757C89.3894 38.8204 90.5518 38.7651 90.8839 38.7651C90.9946 38.7651 91.0499 38.7651 91.0499 38.7098C91.0499 38.5992 90.3857 38.5992 89.334 38.7098C88.8912 38.7651 88.227 38.7651 87.8396 38.8204C86.954 38.8757 86.8433 38.8757 86.7326 38.931C86.6219 38.9863 86.7879 38.9863 86.954 38.9863ZM91.4927 38.7651C91.6588 38.7651 91.8802 38.8204 91.8802 38.7651C91.9355 38.7651 92.5444 38.7098 93.2639 38.7098C93.9281 38.6545 94.537 38.6545 94.537 38.6545C94.5924 38.5992 91.6588 38.5992 91.382 38.6545C91.1606 38.6545 91.1606 38.7098 91.4927 38.7651ZM94.9245 38.6545C94.9798 38.7098 95.1459 38.7098 95.4226 38.7098C95.644 38.7098 95.8101 38.7651 95.8101 38.7651C95.8101 38.8204 95.9208 38.8204 95.9761 38.8204C96.0868 38.8204 96.0868 38.8204 96.0315 38.7651C95.9208 38.7098 95.9208 38.7098 96.0315 38.6545C96.0868 38.6545 95.8101 38.5992 95.478 38.5992C95.1459 38.5992 94.8691 38.5992 94.9245 38.6545ZM96.9171 38.7651C97.1938 38.7098 97.4152 38.7651 97.4706 38.8204C97.5259 38.8757 97.7473 38.8757 97.9687 38.8757C98.4669 38.8757 99.7953 38.9863 100.127 39.0969C100.515 39.2075 100.681 39.1522 100.349 39.0416C99.4632 38.7098 97.4706 38.4886 96.6957 38.5992C96.2529 38.7098 96.4189 38.7651 96.9171 38.7651Z" fill="white"/>
<path d="M107.158 58.7836C107.158 59.0601 107.103 59.1154 106.66 59.1707C105.276 59.4472 101.9 61.1062 99.8521 62.5993C98.6898 63.4288 98.6344 63.4841 98.5237 64.1477C98.0256 66.2491 96.0329 71.1707 94.7045 73.6039C93.7082 75.3735 91.2728 79.1338 90.0551 80.7375C88.3392 83.0601 85.627 85.6039 84.0772 86.3228C83.247 86.7099 82.0846 86.8758 81.365 86.6546C80.8669 86.4334 79.8152 85.1615 79.5385 84.2767C79.2617 83.3366 79.2064 81.8435 79.4831 81.567C79.7045 81.4564 79.7045 81.4011 79.4831 81.4011C79.3724 81.4011 79.2617 81.3458 79.2617 81.2905C79.2617 80.8481 80.258 78.6361 81.0883 77.1431C81.5311 76.3689 83.5237 73.438 83.6344 73.438C83.6898 73.438 83.6898 73.5486 83.5791 73.7145C83.5237 73.8804 83.6898 73.7698 84.0219 73.3827C85.0182 72.1661 86.6787 70.3965 87.8964 69.2352C88.616 68.5716 89.5016 67.7421 89.889 67.2997C90.3318 66.9126 90.8853 66.4702 91.1067 66.3596C91.3281 66.2491 91.937 65.8067 92.4905 65.3643C93.4315 64.5901 94.2064 64.0371 95.5901 63.2076C96.0329 62.8758 96.2543 62.7099 96.3097 62.4334C96.365 62.2675 96.4757 61.7145 96.5864 61.2168C96.9739 59.6684 97.0846 58.8389 97.0846 56.9034C97.0846 55.5209 97.0292 54.5255 96.8632 53.3643C96.4757 50.7652 96.3097 50.3781 95.7562 50.3781C95.5348 50.3781 95.3687 50.3228 95.2027 50.2122C95.258 50.3228 95.258 50.4334 95.258 50.5993C95.3134 51.7053 95.092 52.3689 94.151 53.9173C93.4868 54.9679 93.0994 55.7421 93.0994 55.9633C93.0994 56.2951 91.7709 58.673 90.996 59.6684C90.7746 59.9449 90.3318 60.6638 89.9444 61.2168C89.5569 61.7698 88.8927 62.7652 88.4499 63.3182C88.0071 63.8712 87.3983 64.6454 87.0662 65.0325C86.1252 66.249 84.52 67.6868 83.7451 68.1292C82.8042 68.5716 82.1953 68.5716 81.4204 68.0186C80.4241 67.355 79.9813 66.5808 79.7599 65.2537C79.6492 64.2583 79.7045 63.1523 80.2027 61.1615C80.4794 60.1108 80.7008 59.3366 81.6971 56.5716C81.7525 56.2951 82.2507 55.1338 82.8042 54.0279C83.3023 52.9219 83.7451 51.8712 83.7451 51.7053C83.7451 51.3182 84.5754 49.6039 85.3503 48.2767L86.9555 45.7329C87.0662 45.4564 87.1768 45.4011 87.7304 45.4011C88.2285 45.4011 88.2839 45.4564 88.3946 45.6223C88.4499 45.8435 88.5053 45.8435 88.782 45.7882C89.1141 45.7329 89.1695 45.7329 89.1141 45.8988C89.0588 46.0094 89.0588 46.12 89.1695 46.12C89.3909 46.12 89.5016 46.673 89.3355 46.9495C89.2802 47.0601 89.0588 47.5025 88.8927 48.0002C88.782 48.3873 88.3392 49.2721 87.9518 49.9357C87.5643 50.5993 86.9554 51.7606 86.568 52.5901C86.1805 53.3643 85.7377 54.3044 85.5163 54.6914C85.0182 55.7421 83.5237 59.8343 82.9702 61.7698C82.5828 62.9864 82.1399 65.4749 82.1953 65.5855C82.3614 65.6961 83.4684 64.756 84.7968 63.3182C86.0145 62.0463 87.1768 60.6638 87.1768 60.6085C87.1768 60.5532 87.4536 60.2767 87.7304 59.9449C88.3392 59.2813 89.5569 57.567 90.7746 55.7974C91.2174 55.1338 91.4388 54.6914 91.3835 54.5255C91.3281 54.3596 91.3281 54.3043 91.4388 54.4702C91.4942 54.5808 91.6602 54.4702 91.937 54.0279C92.6012 52.8113 92.7673 52.4795 92.7673 52.3136C92.7673 52.1477 93.8743 50.3228 94.4831 49.438C94.3724 49.2168 94.4278 49.1062 94.7045 48.7191C94.9259 48.3873 95.2027 48.2214 95.4241 48.2214C95.6455 48.1661 95.8115 48.1108 95.9222 48.0555C96.0329 47.9449 96.1436 48.0002 96.199 48.2214C96.2543 48.4426 96.4204 48.5532 96.5311 48.5532C96.5864 48.5532 96.9186 48.885 97.1953 49.3274C97.8042 50.1569 98.4684 51.9818 98.7451 53.7514C99.0219 55.2997 99.1879 58.0094 99.0772 59.1154C99.0219 59.7237 99.0219 60.1108 99.1326 60.0555C99.1879 60.0555 99.8521 59.6684 100.572 59.2813C101.955 58.5071 102.509 58.3412 101.955 58.7836C101.623 59.0048 101.679 59.0048 102.288 58.7836C103.062 58.4518 103.505 58.2306 103.007 58.3412C102.896 58.3965 102.62 58.4518 102.564 58.4518C102.509 58.5071 102.454 58.4518 102.454 58.3965C102.454 58.3412 102.896 58.12 103.45 57.9541C104.336 57.6223 104.612 57.567 105.553 57.6223C106.605 57.6776 106.992 57.8435 106.882 58.1753C106.826 58.2859 106.882 58.3965 106.992 58.3965C107.103 58.5624 107.158 58.6177 107.158 58.7836ZM82.6935 58.4518C82.8595 58.0647 83.0256 57.6776 83.0256 57.6223C83.0256 57.4011 82.8042 57.5117 82.5274 57.7882C82.3614 58.0094 82.2507 58.0094 82.1953 57.8988C82.1399 57.7882 82.0292 57.9541 81.8078 58.4518C81.3097 59.9449 81.0883 60.7191 81.1436 60.885C81.199 60.9956 81.1436 61.1062 81.0329 61.1062C80.8115 61.1615 80.3687 63.9265 80.4241 64.8113C80.4794 66.4702 80.7562 66.4149 80.9222 64.756C81.199 62.7099 81.8078 60.6085 82.6935 58.4518ZM83.0809 83.779C83.5791 83.4472 84.354 82.8389 84.7968 82.3965C85.8484 81.4564 87.8411 79.1338 88.4499 78.1385C89.5569 76.4795 89.9444 76.1477 90.1104 76.0371C90.2211 75.9818 90.7193 75.3182 91.2174 74.4887C92.2691 72.6638 93.9296 69.5117 93.8743 69.4564C93.8189 69.4011 93.0994 70.673 92.9333 71.1154C92.878 71.226 92.8226 71.3366 92.8226 71.3366C92.7119 71.226 93.5975 69.3458 93.7636 69.2352C93.8189 69.1799 94.151 68.5716 94.4278 67.8527C95.258 65.8067 95.258 65.862 94.0957 66.7467C91.3835 68.7928 87.2322 72.9403 85.4056 75.3735C83.3023 78.1938 81.365 81.8988 81.1436 83.2813C81.0883 83.7237 81.0883 84.1661 81.0883 84.2767C81.3097 84.6085 82.14 84.3873 83.0809 83.779ZM95.7562 67.7421C95.7562 67.6315 95.5348 68.0186 95.2027 68.6822C94.9259 69.2905 94.4278 70.1753 94.0957 70.6177C93.7636 71.0048 93.4315 71.6131 93.2654 71.8896C93.1547 72.1661 92.9887 72.3873 92.9333 72.3873C92.878 72.3873 92.8226 72.4979 92.8226 72.6085C92.8226 72.7191 92.7673 72.7744 92.7119 72.7744C92.6566 72.7744 92.6012 72.8297 92.6566 72.885C92.7119 72.9956 92.1584 74.1569 91.9923 74.1569C91.937 74.1569 91.8816 74.2675 91.8816 74.3781C91.8816 74.4887 91.8263 74.544 91.7709 74.4887C91.7156 74.4334 91.6602 74.544 91.6602 74.5993C91.7156 74.7099 91.6049 74.8205 91.5495 74.8205C91.4388 74.8205 91.4388 74.8758 91.4388 74.9864C91.4942 75.097 91.3281 75.4841 91.1067 75.7606C90.8853 76.0924 90.7746 76.3136 90.8853 76.3136C90.996 76.3136 90.996 76.3689 90.996 76.5348C90.996 76.756 90.6639 77.1984 90.4979 77.1984C90.4425 77.1984 90.4979 77.0325 90.6639 76.8666C90.7746 76.7007 90.8853 76.5348 90.7746 76.4795C90.7193 76.4242 90.5532 76.5901 90.4425 76.8113C90.2211 77.1984 90.1104 77.2537 90.0551 77.0325C89.9997 76.9219 89.9444 76.9772 89.8337 77.1984C89.6676 77.4749 89.723 77.4749 89.889 77.309C90.1104 77.0878 90.1658 77.309 89.889 77.8067C89.7783 78.1385 89.6676 78.1385 89.5016 78.0279C89.3909 77.9173 89.3355 77.9173 89.2248 78.0831C88.5606 79.355 84.7968 83.5025 83.5237 84.3873C83.1363 84.7191 82.4721 85.0509 82.0846 85.1615C81.3097 85.3827 81.3097 85.3827 81.4757 85.6592C81.8078 86.0463 82.5828 85.8804 83.6344 85.3274C84.1326 85.0509 85.0182 84.4426 85.461 84.0002C85.9591 83.5578 86.4019 83.226 86.4573 83.226C86.568 83.2813 86.6233 83.2813 86.6787 83.1707C86.734 83.0601 86.6787 83.0601 86.6233 83.0601C86.568 83.0601 86.8447 82.6177 87.3982 82.0647C87.8964 81.5117 88.6713 80.5716 89.1695 79.9633C89.6123 79.2997 90.0551 78.802 90.1104 78.8573C90.1658 78.9126 90.2211 78.8573 90.1658 78.802C90.1104 78.7467 90.6639 77.7514 91.3835 76.6454C92.0477 75.5394 92.7119 74.4334 92.7673 74.2122C92.878 73.991 93.0994 73.5486 93.2654 73.3827C93.4315 73.1615 93.5975 72.885 93.5975 72.885C93.5975 72.8297 93.7082 72.6085 93.8743 72.332C94.2617 71.6684 95.7562 68.0186 95.7562 67.7421ZM82.4721 57.4564C82.5828 57.3458 82.6381 57.1246 82.6381 57.0693C82.6381 56.9034 82.4167 56.9587 82.3614 57.1799C82.2507 57.567 82.306 57.6776 82.4721 57.4564ZM82.7488 56.5716C82.8042 56.7928 82.8595 56.7928 82.8595 56.5716C82.8595 56.461 82.9149 56.3504 82.9702 56.3504C83.0256 56.3504 83.0809 56.4057 83.0809 56.461C83.1363 56.5716 83.5237 55.6315 84.1326 53.9726C84.1879 53.9173 84.0219 54.0279 83.8005 54.1938C83.413 54.6914 82.6381 56.2951 82.7488 56.5716ZM86.2359 72.885C86.2912 72.885 86.3466 72.8297 86.4573 72.6638C86.568 72.5532 86.568 72.4979 86.568 72.4979C86.5126 72.4979 86.4573 72.5532 86.3466 72.6638C86.2359 72.7744 86.2359 72.885 86.2359 72.885ZM87.0108 72.0555L87.5643 71.5025C87.8964 71.1707 88.1178 70.9495 88.1178 70.9495C88.1178 70.7283 87.8411 71.0048 87.4536 71.5025L87.0108 72.0555ZM87.675 82.1753C87.3982 82.4518 87.1768 82.7283 87.1768 82.7283C87.1768 82.7836 87.8411 82.1753 88.0071 81.9541C88.0625 81.7882 87.9518 81.8988 87.675 82.1753ZM92.9887 65.8067C91.4388 67.0232 89.4462 68.7375 88.0071 70.2306C87.1768 71.0601 87.0662 71.2813 87.8964 70.6177C88.1178 70.4518 88.5606 70.0647 88.8927 69.6776C89.2802 69.2905 89.5569 69.1246 89.723 69.1246C89.8337 69.1799 89.9997 69.1246 90.0551 69.014C90.1658 68.8481 90.1658 68.7928 90.0551 68.7928C89.889 68.7928 90.3318 68.2398 90.83 67.8527C91.2174 67.5762 91.3835 67.6315 91.1621 67.9633C91.0514 68.1845 91.0514 68.1845 91.2174 67.9633C91.3281 67.8527 91.5495 67.7421 91.6602 67.7421C91.8816 67.7421 91.937 67.6315 91.7156 67.4103C91.5495 67.1891 91.7156 66.9679 92.9333 66.0832C95.4794 64.1477 96.0883 63.7606 96.0883 63.5947C96.1436 63.4288 95.8115 63.65 92.9887 65.8067ZM94.4278 52.1477C94.2064 52.4242 93.2654 53.9173 92.878 54.6914C92.7119 55.0785 91.937 56.3504 91.2174 57.4011C89.5016 60.0002 89.5016 60.1661 91.1621 57.8988C91.6049 57.2905 92.2137 56.461 92.3798 56.0739C92.5458 55.6868 93.1547 54.5808 93.6529 53.6961C94.2064 52.7007 94.5385 52.0371 94.4278 52.1477ZM90.6086 68.5163C90.6639 68.461 90.7193 68.4057 90.7193 68.4057C90.7193 68.3504 90.6639 68.3504 90.6086 68.3504C90.5532 68.3504 90.4979 68.4057 90.4979 68.461C90.4979 68.5163 90.5532 68.5163 90.6086 68.5163ZM91.7709 76.3689C91.6602 76.5348 91.6049 76.7007 91.6602 76.5901C91.7709 76.5348 91.8816 76.3689 91.937 76.2583C92.1031 75.9265 91.9923 75.9818 91.7709 76.3689ZM91.9923 67.4103C91.937 67.355 91.8816 67.2997 91.7709 67.2997C91.7156 67.2997 91.7156 67.355 91.7156 67.4103C91.7709 67.4656 91.8263 67.5209 91.8816 67.5209C91.9923 67.5209 92.0477 67.4656 91.9923 67.4103ZM92.103 67.1891C92.2137 67.355 92.3245 67.2997 92.6012 67.0785C92.878 66.8573 92.878 66.8573 92.6566 66.8573C92.4905 66.802 92.4352 66.9126 92.4352 67.0232C92.4352 67.1338 92.3798 67.1338 92.2138 67.1338C92.1031 67.0785 92.0477 67.0785 92.103 67.1891ZM93.6529 66.1385C93.7636 66.1385 93.8743 66.0832 93.8743 66.0279C93.9296 65.9726 93.8189 65.9726 93.7082 65.9726C93.4315 66.0279 93.3761 66.1385 93.6529 66.1385ZM94.8706 49.991C94.8152 49.9357 94.7599 49.8804 94.6492 49.7698C94.2064 50.4334 93.5975 51.7053 93.7636 51.7053C93.8189 51.7053 94.0957 51.2076 94.4278 50.6546C94.5938 50.3781 94.7045 50.1569 94.8706 49.991ZM94.6492 65.3643L94.9259 64.9772L94.5385 65.2537C94.3171 65.4196 94.151 65.5855 94.151 65.6408C94.2064 65.862 94.3724 65.7514 94.6492 65.3643Z" fill="white"/>
<path d="M94.2624 14.8755L92.9893 19.0783H91.2734L92.159 14.8755H94.2624Z" fill="white"/>
<path d="M98.4709 19.7419C97.6406 19.7419 96.9764 20.2396 96.9764 20.9032C96.9764 21.788 98.0834 22.0645 99.6332 22.3962C101.294 22.7833 102.456 23.5575 102.456 25.0506C102.456 26.9308 100.685 27.9815 98.6369 27.9815C96.6996 27.9815 94.9284 27.0967 94.707 24.8847H96.755C96.9211 25.9354 97.5853 26.3778 98.6369 26.3778C99.5225 26.3778 100.353 25.9907 100.353 25.1612C100.353 24.2211 99.4118 24.1105 97.9174 23.7234C96.4229 23.3916 94.9284 22.6727 94.9284 20.9585C94.9284 19.2442 96.5889 18.1382 98.5262 18.1382C100.574 18.1382 102.069 19.1889 102.29 21.1797H100.297C100.131 20.1843 99.3011 19.7419 98.4709 19.7419Z" fill="white"/>
<path d="M39.9096 27.8156C35.9244 27.8156 33.4336 24.9953 33.4336 21.2349C33.4336 17.4746 35.9244 14.6543 39.9096 14.6543C43.1199 14.6543 45.0019 16.3133 45.7768 18.8018H43.6181C42.9539 17.2534 41.8469 16.4792 39.9096 16.4792C37.1974 16.4792 35.5923 18.5806 35.5923 21.2349C35.5923 23.8893 37.1974 25.9907 39.9096 25.9907C42.0129 25.9907 43.1199 25.0506 43.6181 23.6681H45.7768C45.2233 26.046 43.1199 27.8156 39.9096 27.8156Z" fill="white"/>
<path d="M54.8547 27.5944H52.7514C52.696 27.2073 52.6407 26.7649 52.6407 26.3778V26.1013C52.3086 26.9308 51.4783 27.8156 49.7071 27.8156C47.6591 27.8156 46.4414 26.5437 46.4414 25.0506C46.4414 22.3963 49.5964 22.2857 50.9248 22.0645C52.1425 21.8433 52.6407 21.6774 52.6407 20.9032C52.6407 20.129 51.9765 19.6313 50.8695 19.6313C49.8731 19.6313 49.1536 20.1843 49.0982 21.1244H47.1056C47.2163 19.6313 48.3787 18.0276 50.8695 18.0276C53.9137 18.0276 54.744 19.8525 54.744 21.8433V25.4377C54.6886 26.1566 54.744 27.0967 54.8547 27.5944ZM52.696 22.3963C52.4746 22.9492 51.9765 23.3916 50.4266 23.6681C49.1536 23.8893 48.4894 24.2764 48.4894 25.0506C48.4894 25.7695 49.1536 26.3225 50.2052 26.3225C51.4783 26.3225 52.696 25.4377 52.696 23.3363V22.3963Z" fill="white"/>
<path d="M59.3927 19.6864C58.5625 19.6864 57.8983 20.1841 57.8983 20.8477C57.8983 21.7325 58.9499 22.009 60.4998 22.3408C62.1049 22.6726 63.3226 23.4468 63.3226 24.9399C63.3226 26.7648 61.5514 27.8708 59.5034 27.8708C57.6215 27.8708 55.8503 27.0413 55.6289 24.8293H57.6769C57.8429 25.8247 58.5071 26.3224 59.5588 26.3224C60.4444 26.3224 61.2747 25.9906 61.2747 25.1058C61.2747 24.221 60.3891 24.0551 58.8946 23.7233C57.4001 23.3915 55.9057 22.6726 55.9057 21.0136C55.9057 19.3546 57.5662 18.1934 59.4481 18.1934C61.4407 18.1934 62.9352 19.1888 63.1566 21.2348H61.2193C61.0533 20.1288 60.2784 19.6864 59.3927 19.6864Z" fill="white"/>
<path d="M73.7286 22.9491C73.7286 25.8247 71.9574 27.8708 69.5219 27.8708C67.9168 27.8708 66.9205 27.0413 66.533 25.9353V31.1888H64.4297V18.3593H66.5884V20.0182C66.9205 19.0229 67.9721 18.0828 69.5773 18.0828C71.9574 18.0828 73.7286 20.0735 73.7286 22.9491ZM71.6253 22.9491C71.6253 21.1795 70.6289 19.797 69.0238 19.797C67.4186 19.797 66.4777 21.0136 66.367 22.7279V22.9491C66.367 24.774 67.1972 26.1565 69.0238 26.1565C70.6843 26.1565 71.6253 24.7187 71.6253 22.9491Z" fill="white"/>
<path d="M83.4134 23.5022H76.3286C76.4946 25.1612 77.5463 26.1566 78.9854 26.1566C80.037 26.1566 80.9227 25.7695 81.2548 24.8294H83.3027C82.7492 26.7096 81.1441 27.8156 78.9854 27.8156C76.2179 27.8156 74.3359 25.8248 74.3359 22.9492C74.3359 20.129 76.2732 18.1382 78.9854 18.1382C82.1404 18.1382 83.4134 20.5714 83.4134 23.1704V23.5022ZM81.3655 22.0092C81.1994 20.5714 80.3691 19.6866 78.93 19.6866C77.4909 19.6866 76.55 20.5714 76.3286 22.0092H81.3655Z" fill="white"/>
<path d="M86.6261 23.2257V27.5944H84.5781V18.3594H86.6261V20.2949H86.6814C87.0136 19.023 87.9545 18.2488 89.3936 18.1382V20.1843C87.5671 20.2396 86.6261 21.4009 86.6261 23.2257Z" fill="white"/>
<path d="M30.221 26.5438C29.7229 26.5438 29.3354 26.8756 29.2247 27.3733L25.4055 27.2074C25.4055 27.1521 25.4055 27.0415 25.4055 26.9862C25.4055 26.8756 25.4055 26.7097 25.3502 26.5991L26.7339 25.7696C26.9 25.9908 27.1767 26.1567 27.5089 26.1567C28.0624 26.1567 28.5052 25.7143 28.5052 25.1613C28.5052 24.6083 28.0624 24.1659 27.5089 24.1659C26.9553 24.1659 26.5125 24.6083 26.5125 25.1613C26.5125 25.3272 26.5679 25.4931 26.6232 25.6037L25.2948 26.3779C25.0734 25.8802 24.5753 25.5484 24.0218 25.5484C23.2469 25.5484 22.5827 26.1567 22.5827 26.9862C22.5827 27.1521 22.638 27.318 22.6934 27.4839L20.2026 28.0922C20.2026 27.7604 20.0365 27.4286 19.8151 27.1521L20.2579 26.5438C20.3686 26.5991 20.4793 26.5991 20.59 26.5991C21.1435 26.5991 21.5863 26.1567 21.5863 25.6037C21.5863 25.0507 21.1435 24.6083 20.59 24.6083C20.0365 24.6083 19.5937 25.0507 19.5937 25.6037C19.5937 25.9908 19.8151 26.2673 20.0919 26.4885L19.6491 27.0415C19.4277 26.8756 19.0956 26.765 18.8188 26.765C18.7635 26.765 18.7081 26.765 18.6528 26.765L18.21 24.2765C18.8188 24.1106 19.317 23.5576 19.317 22.894C19.317 22.1199 18.7081 21.4563 17.8779 21.4563C17.6565 21.4563 17.4351 21.5116 17.2136 21.6222L16.1066 19.5208C16.328 19.4102 16.5494 19.2443 16.6601 19.0231L17.5458 19.2443C17.5458 19.2996 17.5458 19.3549 17.5458 19.4102C17.5458 19.9632 17.9886 20.4056 18.5421 20.4056C19.0956 20.4056 19.5384 19.9632 19.5384 19.4102C19.5384 18.8572 19.0956 18.4148 18.5421 18.4148C18.0993 18.4148 17.7118 18.6913 17.6011 19.0784L16.7708 18.8572C16.8262 18.6913 16.8815 18.5254 16.8815 18.3042C16.8815 18.1936 16.8815 18.083 16.8262 17.9724L19.317 16.8111C19.5937 17.1429 19.9812 17.3088 20.424 17.3088C21.1989 17.3088 21.8631 16.7005 21.8631 15.871C21.8631 15.5945 21.8077 15.318 21.6417 15.0968L23.2469 13.5484C23.4129 13.659 23.6343 13.7696 23.9111 13.7696V14.4885C23.4129 14.5438 23.0255 14.9862 23.0255 15.4839C23.0255 16.0369 23.4683 16.4793 24.0218 16.4793C24.5753 16.4793 25.0181 16.0369 25.0181 15.4839C25.0181 14.9862 24.6306 14.5438 24.1325 14.4885V13.7696C24.3539 13.7696 24.5199 13.7143 24.686 13.6037L26.4572 15.5945C26.2911 15.8157 26.1804 16.1475 26.1804 16.424C26.1804 17.1982 26.7893 17.8618 27.6196 17.8618C28.3945 17.8618 29.0587 17.2535 29.0587 16.424C29.0587 16.2581 29.0033 16.0922 28.948 15.9263L29.5015 15.5945C29.6675 15.8157 29.9443 15.9816 30.2764 15.9816C30.8299 15.9816 31.2727 15.5392 31.2727 14.9862C31.2727 14.4332 30.8299 13.9908 30.2764 13.9908C29.7229 13.9908 29.2801 14.4332 29.2801 14.9862C29.2801 15.1521 29.3354 15.318 29.3908 15.4286L28.8926 15.7051C28.6712 15.2627 28.1731 14.9862 27.6749 14.9862C27.2874 14.9862 26.9553 15.1521 26.6786 15.3733L24.9627 13.3825C25.1288 13.2719 25.2948 13.0507 25.3502 12.8848L26.8446 13.1613C26.9553 13.6037 27.3428 13.9355 27.841 13.9355C28.3945 13.9355 28.8373 13.4931 28.8373 12.9401C28.8373 12.3871 28.3945 11.9447 27.841 11.9447C27.2874 11.9447 26.8446 12.3871 26.8446 12.9401L25.3502 12.7189C25.4055 12.6083 25.4055 12.4424 25.4055 12.3318C25.4055 11.5576 24.7967 10.894 23.9664 10.894C23.1915 10.894 22.5273 11.5023 22.5273 12.3318C22.5273 12.7742 22.6934 13.106 23.0255 13.3825L21.4756 14.9309C21.2542 14.6544 20.9221 14.4885 20.5347 14.4332V13.3825C21.0328 13.3272 21.4203 12.8848 21.4203 12.3871C21.4203 11.8341 20.9775 11.3917 20.424 11.3917C19.8705 11.3917 19.4277 11.8341 19.4277 12.3871C19.4277 12.8848 19.8151 13.3272 20.3133 13.3825V14.4332C19.5937 14.4885 18.9849 15.0968 18.9849 15.8157C18.9849 16.0922 19.0402 16.3134 19.1509 16.5346L16.7155 17.6406C16.6048 17.4194 16.4941 17.2535 16.328 17.0876L17.269 15.3733C17.3243 15.3733 17.4351 15.4286 17.5458 15.4286C18.0993 15.4286 18.5421 14.9862 18.5421 14.4332C18.5421 13.8802 18.0993 13.4378 17.5458 13.4378C16.9922 13.4378 16.5494 13.8802 16.5494 14.4332C16.5494 14.8203 16.7708 15.1521 17.1029 15.318L16.162 16.977C15.9406 16.8664 15.7192 16.7558 15.4424 16.7558C14.6675 16.7558 14.0033 17.3641 14.0033 18.1936C14.0033 18.9678 14.6122 19.6314 15.4424 19.6314C15.6085 19.6314 15.7192 19.6314 15.8852 19.5761L16.9922 21.7328C16.7155 21.9539 16.4941 22.2304 16.4387 22.5622L15.6638 22.341C15.6638 22.2857 15.7192 22.1751 15.7192 22.0646C15.7192 21.5116 15.2764 21.0692 14.7229 21.0692C14.1694 21.0692 13.7266 21.5116 13.7266 22.0646C13.7266 22.6175 14.1694 23.0599 14.7229 23.0599C15.1103 23.0599 15.4424 22.8387 15.6085 22.5069L16.4387 22.7834V22.8387C16.4387 23.3364 16.7155 23.7788 17.1029 24.0553L16.5494 24.7742C16.3834 24.6083 16.162 24.4977 15.8852 24.4977C15.3317 24.4977 14.8889 24.9401 14.8889 25.4931C14.8889 26.0461 15.3317 26.4885 15.8852 26.4885C16.4387 26.4885 16.8815 26.0461 16.8815 25.4931C16.8815 25.2719 16.8262 25.0507 16.6601 24.8848L17.269 24.1106C17.4351 24.1659 17.6565 24.2212 17.8225 24.2212C17.8779 24.2212 17.8779 24.2212 17.9332 24.2212L18.376 26.7097C17.7672 26.8756 17.3797 27.4286 17.3797 28.0922C17.3797 28.8664 17.9886 29.53 18.8188 29.53C19.2616 29.53 19.7044 29.3088 19.9258 28.977L21.9738 29.8618C21.9738 29.9171 21.9738 30.0277 21.9738 30.083C21.9738 30.636 22.4166 31.0784 22.9701 31.0784C23.5236 31.0784 23.9664 30.636 23.9664 30.083C23.9664 29.53 23.5236 29.0876 22.9701 29.0876C22.5827 29.0876 22.1952 29.3088 22.0291 29.6406L19.9812 28.7558C20.0919 28.5899 20.1472 28.424 20.1472 28.2581L22.7487 27.5945C22.9701 28.0369 23.4683 28.3134 23.9664 28.3134C24.2985 28.3134 24.5753 28.2028 24.852 27.9816L25.8483 28.8111C25.793 28.9217 25.7376 29.0876 25.7376 29.2535C25.7376 29.8065 26.1804 30.2489 26.7339 30.2489C27.2874 30.2489 27.7303 29.8065 27.7303 29.2535C27.7303 28.7005 27.2874 28.2581 26.7339 28.2581C26.4018 28.2581 26.1251 28.424 25.9037 28.6452L24.9627 27.871C25.0734 27.7051 25.1841 27.5392 25.2948 27.3733L29.1694 27.5392C29.1694 28.0922 29.6122 28.5346 30.1657 28.5346C30.7192 28.5346 31.162 28.0922 31.162 27.5392C31.2727 26.9862 30.8299 26.5438 30.221 26.5438Z" fill="#FF0012"/>
</svg>
